<?xml version="1.0" encoding="UTF-8"?>
<svg id="Layer_1" xmlns="http://www.w3.org/2000/svg" version="1.1" viewBox="0 0 1951 584.7">
  <!-- Generator: Adobe Illustrator 30.4.0, SVG Export Plug-In . SVG Version: 2.1.4 Build 226)  -->
  <defs>
    <style>
      .st0, .st1, .st2 {
        fill: none;
      }

      .st0, .st1, .st3 {
        stroke: #058aad;
        stroke-width: 30px;
      }

      .st0, .st2 {
        stroke-miterlimit: 10;
      }

      .st4 {
        fill: #058aad;
      }

      .st2 {
        stroke: #27a038;
        stroke-width: 10px;
      }

      .st5 {
        fill: #27a038;
      }

      .st3 {
        fill: #231f20;
      }
    </style>
  </defs>
  <path class="st3" d="M267.2,329.1h-27.1c-1.1-.1-2,1.6-2,3.8s.9,4,2,4.1h27.2c1,.1,2-1.6,2-3.7v-.3c0-2.1-.8-3.8-1.9-3.8h-.2ZM342.8,387.3l-83.9-200.2c-.2-.6-.6-1.2-.9-1.8,0-.2-.1-.3-.3-.3h0c-1.4-2.1-4.2-2.7-6.3-1.5-1,.6-1.8,1.4-2.4,2.4-.9,2.4-84.6,201.4-84.6,201.4-.9,2.6.3,5.4,2.7,6.6s5.3.2,6.4-2.2c.1-.2.2-.4.2-.5l77.9-185.2c.8-1.9,3.4-1.9,4.2,0l77.6,185.2c.8,1.9,2.8,3.1,4.8,3,.6,0,1.2-.1,1.8-.3,2.5-.9,3.8-3.8,2.9-6.3,0-.1,0-.2,0-.3h0Z"/>
  <path class="st1" d="M562,386.4l-58.3-82.7h3c32.3,0,58.9-26.3,58.9-58.6s-26.4-58.8-58.8-58.9h-42c-2.8,0-5.1,2.2-5.1,5h0c.1,2.9,2.4,5.1,5.2,5.2h42c26.9-.3,48.6,21.7,48.6,48.6,0,26.8-21.8,48.5-48.6,48.6h-42c-2.8,0-5.1,2.3-5.1,5.1h0c.1,2.8,2.4,5,5.1,4.9h26.3l62.5,88.5c1,1.4,2.6,2.2,4.2,2.1,1.1,0,2.1-.3,3-.9,2.1-1.7,2.6-4.7,1.1-6.9ZM414,186.2c-2.8,0-5.1,2.2-5.1,5h0v198.1c.1,2.8,2.5,5,5.4,4.9,2.7-.1,4.8-2.2,4.9-4.9v-198c0-2.8-2.3-5.1-5.2-5.1.1,0,0,0,0,0Z"/>
  <path class="st0" d="M696.6,290.4c0,2.7,2.2,4.8,4.9,4.8h82.7c2.6,0,4.8-2.1,4.8-4.7h0c.2-2.8-1.9-5.1-4.5-5.2h-82.7c-2.7-.1-5,2-5.1,4.7-.1.1-.1.2-.1.4ZM834.7,285.2c-2.7-.1-5,2-5.1,4.7v.5c0,51.6-42.3,93.9-93.9,93.9s-93.8-42.1-93.8-94,42.1-93.8,94-93.8,48.7,9.9,66.3,27.5c2.1,1.8,5.2,1.8,7.2,0,1.8-2.1,1.8-5.2,0-7.2-40.7-40.7-106.6-40.7-147.3,0-19.5,19.5-30.5,46-30.5,73.6,0,57.4,46.8,103.8,104.1,103.8s104.2-46.5,104.2-103.8-2.2-5.1-5-5.1c0-.1-.2-.1-.2-.1Z"/>
  <g>
    <path class="st4" d="M1301.4,229.1c-2.5.1-4.6,2.1-4.7,4.7v156.1c0,2.5,2.2,4.4,4.7,4.4,2.4.1,4.5-1.7,4.6-4.1v-156.5c0-2.5-1.9-4.6-4.6-4.6q0,0,0,0ZM1226.3,186.2c-2.8,0-5.1,2.2-5.1,5.1h0c0,2.9,2.3,5.1,5.1,5.2h150.6c2.8-.1,4.9-2.4,4.8-5.1,0-2.7-1.9-4.9-4.6-5.1h-150.8Z"/>
    <path class="st4" d="M1301.4,229.1c-2.5.1-4.6,2.1-4.7,4.7v156.1c0,2.5,2.2,4.4,4.7,4.4,2.4.1,4.5-1.7,4.6-4.1v-156.5c0-2.5-1.9-4.6-4.6-4.6q0,0,0,0ZM1226.3,186.2c-2.8,0-5.1,2.2-5.1,5.1h0c0,2.9,2.3,5.1,5.1,5.2h150.6c2.8-.1,4.9-2.4,4.8-5.1,0-2.7-1.9-4.9-4.6-5.1h-150.8Z"/>
    <path class="st1" d="M1301.4,229.1c-2.5.1-4.6,2.1-4.7,4.7v156.1c0,2.5,2.2,4.4,4.7,4.4,2.4.1,4.5-1.7,4.6-4.1v-156.5c0-2.5-1.9-4.6-4.6-4.6q0,0,0,0ZM1226.3,186.2c-2.8,0-5.1,2.2-5.1,5.1h0c0,2.9,2.3,5.1,5.1,5.2h150.6c2.8-.1,4.9-2.4,4.8-5.1,0-2.7-1.9-4.9-4.6-5.1h-150.8Z"/>
  </g>
  <path class="st1" d="M1554.1,384.2h-115.9c-2.8,0-5.1,2.2-5.1,5h0c0,2.8,2.4,5,5.1,4.9h115.9c2.8,0,5-2.2,5-5s-2.2-4.9-5-4.9h0ZM1438.2,348.6c2.8,0,5.1-1.7,5.1-3.8h0v-53.2h108.7c2.8,0,5.1-1.7,5.1-3.9s-2.3-3.9-5.1-3.9h-108.7v-48.3c0-2.1-2.5-3.8-5.4-3.7-2.7.1-4.8,1.7-4.9,3.7v109c0,2.3,2.3,4.1,5.2,4.1q0,0,0,0h0ZM1554.1,196.5c2.8-.1,5.1-2.3,5.1-5.1s-2.3-5.1-5.1-5.1h-116c-2.8,0-5.1,2.2-5.1,5h0c0,2.9,2.3,5.1,5.1,5.2h116Z"/>
  <g>
    <path class="st4" d="M1701.8,308.2c-1.9-1.6-5-1.1-6.6.8l-61.4,77.7c-1.6,2-1.4,4.9.5,6.6.9.6,2,.9,3,.8,1.4,0,2.7-.6,3.6-1.7l61.6-77.7c1.8-1.8,1.3-4.8-.7-6.5ZM1738.5,262.3c1.1.5,1.6,1.1,2.7,1.1s2.7-.6,3.5-1.6l54-68.2c1.6-1.9,1.1-4.9-.8-6.5-2-1.4-4.7-1-6.2.8l-54.1,68.2c-1.5,1.8-1.2,5.1.9,6.2ZM1648.7,188.1c-1.7-2.1-4.7-2.5-6.9-.9-2.2,1.6-2.7,4.7-1.1,7,0,.1,0,.2.2.3l157,198c1,1.2,2.4,1.9,3.9,1.8,1.1,0,2.1-.3,3-.9,2.2-1.6,2.7-4.8,1.1-7,0-.1,0-.2-.2-.3l-157-198Z"/>
    <path class="st1" d="M1693.4,319.5c-1.7-1.4-4.4-1-5.8.7l-53.9,67.5c-1.4,1.7-1.2,4.3.4,5.7.8.5,1.8.8,2.6.7,1.2,0,2.4-.5,3.2-1.5l54.1-67.5c1.6-1.5,1.1-4.1-.6-5.6ZM1747.6,250.5c.9.4,1.4.9,2.3.9s2.3-.5,3-1.4l46-57.7c1.4-1.6.9-4.1-.7-5.5-1.7-1.2-4-.8-5.3.7l-46,57.7c-1.3,1.6-1.1,4.4.7,5.3ZM1648.7,188.1c-1.7-2.1-4.7-2.5-6.9-.9-2.2,1.6-2.7,4.7-1.1,7,0,.1,0,.2.2.3l157,198c1,1.2,2.4,1.9,3.9,1.8,1.1,0,2.1-.3,3-.9,2.2-1.6,2.7-4.8,1.1-7,0-.1,0-.2-.2-.3l-157-198Z"/>
  </g>
  <g>
    <g>
      <path class="st5" d="M1180.3,290.1c-.1-1.3-.1-3.1-.2-3.8-.1-.7-.1-2.1-.2-3-.1-.8-.2-2.4-.4-3.2-.1-1-.4-2.6-.5-3.9-.2-1.3-.5-3.2-.7-4.5-.4-1.2-.7-3.2-1-4.2-.4-1.1-.7-2.9-.9-3.8-.2-1.1-.8-3-1.2-4.3-.4-1.3-1.2-3.5-1.6-4.9-.4-1.4-1.2-3.5-1.5-4.4-.4-1.2-1.1-2.7-1.4-3.6l-1.3-2.9c-.4-.7-1.1-2-1.6-3.1s-1.4-2.7-1.9-3.8c-.5-1.2-1.6-3-2-3.8-.6-.8-1.6-2.5-2-3.3-.6-.8-1.6-2.4-2.1-3.3-.6-1.1-1.8-2.7-2.5-3.8-.8-1.2-2.1-2.9-2.9-3.8-.8-1-2-2.5-2.7-3.3-.7-.8-2-2.5-2.7-3.3-.8-.8-2.1-2.1-2.9-3.1-.7-1-2.5-2.7-3.9-4.2-1.3-1.6-3.1-3.3-4.1-4.1-.8-.7-2.3-2-3.2-2.7-1-.8-2.4-2-3.3-2.7-.9-.7-2.4-1.9-3.5-2.6-.9-.6-2.5-1.8-3.2-2.3-.8-.5-2.1-1.4-3.1-2l-3-1.9c-.8-.4-2.1-1.2-2.9-1.7-.8-.5-2.3-1.4-3.3-1.9-1-.5-2.6-1.4-3.7-1.9-1-.5-2.7-1.3-3.8-1.8-1.1-.6-2.5-1.3-3.5-1.5-.8-.4-2.3-1-3.2-1.3-.8-.4-2.5-1.1-3.8-1.4-1.1-.5-3-1.1-4.1-1.4-1.1-.4-2.6-.8-3.6-1.1-.9-.2-2.4-.6-3.5-.8-.9-.2-2.5-.6-3.2-.7-.8-.2-2.4-.5-3.6-.7-1.1-.2-2.9-.6-3.9-.7-.9-.2-2.7-.4-3.9-.6-1.1-.2-2.7-.4-3.8-.5-1.1-.1-2.5-.2-3.6-.4-1.1-.1-2.6-.2-3.5-.2s-3.6-.1-5.8-.1-5.6-.2-6.8,0c-1.1,0-2.9.1-4,.2-1.1.1-2.7.2-3.9.4-1.1.1-3,.4-4.1.5-1.1.1-2.9.4-4.1.6-1,.2-2.9.5-4.1.7-1.2.2-3.2.7-4.5.9-1.3.2-3.4.7-4.5,1.1-1.1.4-3,1-4.3,1.3-1.2.5-3.1,1.1-4.2,1.4-1.2.5-2.5,1.1-3.5,1.3-.9.5-2.3,1-3.4,1.4-1.1.6-2.7,1.3-3.8,1.7-1.1.4-3.1,1.4-4.6,2.1-1.6.7-3.6,1.8-4.5,2.3-.9.5-2.4,1.4-3.5,2-1.1.6-2.4,1.6-3.3,2-.8.5-2.3,1.4-2.9,1.9s-1.8,1.3-2.5,1.8l-2.9,2c-.8.6-2.3,1.9-3.2,2.5-.9.6-2.4,2-3.3,2.6-1,.6-2.3,2.3-3.2,3-.8,1-2.7,2.6-4.2,4.1-1.3,1.4-3.2,3.3-4.1,4.2-.8.8-2.1,2.3-2.7,3-.7.7-1.8,2.3-2.7,3.2-1,1.1-2.3,2.7-3,3.7-.7,1-1.9,2.5-2.5,3.3-.6.8-1.7,2.4-2.3,3.3-.6,1.1-1.8,2.7-2.4,3.8-.6,1.2-1.7,2.9-2,3.6-.4.7-1.4,2.7-2.3,4.4-.8,1.7-1.8,3.6-2.1,4.4-.4.8-1.1,2.3-1.4,3.1-.4.8-1,2.3-1.3,3.1-.5.8-1,2.1-1.2,2.9-.4.7-.8,2.1-1.1,3-.2.9-.8,2.5-1.2,3.6-.5,1.1-.7,2.6-1.1,3.3-.4.7-.7,2.3-.9,3.2-.4,1.1-.7,2.7-1,4.1-.4,1.3-.7,3.2-1,4.3-.2,1.2-.5,3.1-.6,4.1-.2,1.2-.4,2.9-.5,3.7-.1,1-.4,2.7-.4,3.8s-.1,3-.2,4.1c-.1,1.2-.1,3.9-.1,6.8s0,5.8.1,6.8c0,1.2.1,3.1.2,4.2.1,1.2.2,2.9.4,3.8.1,1.1.4,2.7.5,3.7.1,1.1.4,3,.6,4.1.4,1.2.7,3.2,1,4.3.4,1.3.7,3.1,1,4.1.4,1,.6,2.5.9,3.2.4.7.7,2.4,1.1,3.3.4,1.1,1,2.9,1.3,3.8.4,1.1,1.1,2.7,1.4,3.9.4,1.2,1.1,2.9,1.4,3.7.4.8,1.1,2.4,1.4,3.2.4.8,1.4,2.9,2.1,4.5.8,1.7,2.1,3.7,2.7,5,.6,1.3,1.7,3.1,2.3,4.1.6,1.1,1.7,2.7,2.3,3.7.6,1.1,1.8,2.7,2.4,3.6.6.8,1.8,2.4,2.4,3.2.7.8,2,2.5,2.7,3.3,1,.8,2.3,2.5,3,3.3l2.4,2.7c.6.6,1.8,2,2.9,3,1,1.1,2.6,2.7,3.7,3.6,1.1.8,2.6,2.3,3.3,3,.8.7,2.1,1.8,2.9,2.4.8.6,1.9,1.6,2.7,2.1.8.6,2.1,1.7,3.1,2.4,1,.7,2.5,1.9,3.5,2.5s2.7,1.8,3.7,2.4c1,.6,2.7,1.8,3.9,2.4s2.7,1.5,3.3,1.9l3.3,1.8c1,.5,3,1.5,4.1,2,1.1.5,2.9,1.3,3.9,1.8,1.1.6,2.6,1.2,3.3,1.4.8.2,2.1.7,3.1,1.1l3.6,1.3c1.2.2,2.6.7,3.3.9l3.1.8c.8.2,2.6.7,3.9,1,1.2.4,3.1.7,4.2.9l3.8.7c1,.2,2.6.4,3.7.6,1.1.2,2.5.4,3.5.5.9.1,2.4.2,3.4.4,1,.1,2.6.2,3.8.4,1.2.1,3.2.2,5,.2h6.2c1.7,0,3.8-.1,4.8-.1s2.4-.1,3-.1,2.3-.1,3.3-.2c1-.1,2.6-.2,3.7-.4,1.1-.1,3.1-.4,4.5-.6,1.6-.2,3.7-.6,4.8-.8,1-.2,2.7-.6,3.8-.8,1.1-.2,2.5-.6,3.4-.8l2.9-.7,3-.8c1-.5,2.7-1.1,4.1-1.4,1.2-.4,3.2-1.2,4.5-1.7,1.2-.6,3-1.3,4.1-1.7,1-.4,2.7-1.3,3.9-1.8,1.1-.5,3.1-1.5,4.3-2.1,1.1-.7,2.9-1.7,3.8-2.1,1-.5,2.3-1.4,3.2-1.9,1-.6,2.3-1.4,3.2-2,1-.5,2.1-1.4,3.1-2,.9-.5,2.3-1.6,3.3-2.3,1.1-.7,2.6-1.9,3.3-2.5.8-.6,2.1-1.7,2.7-2.1.7-.5,1.9-1.4,2.7-2.3.8-.8,1.8-1.5,2.1-1.9.4-.4,1.4-1.4,2.5-2.4,1.1-1,2.5-2.6,3.6-3.6,1.1-1,2.3-2.3,3-3,.7-.7,1.7-1.8,2.3-2.5.6-.7,1.8-2,2.5-3,.8-1.1,2-2.6,2.7-3.6.7-.9,1.8-2.5,2.4-3.3l2-2.9c.4-.6,1.3-1.9,1.8-2.7.5-.8,1.6-2.6,2.1-3.7.7-1.2,1.8-3,2.4-4.3.6-1.3,1.8-3.1,2.3-4.4.5-1.3,1.3-3.2,1.8-4.1.5-1,1.2-2.6,1.6-3.6.4-1.1,1.2-3,1.6-4.1.4-1.2,1.1-3.1,1.4-4.1.4-1.1.8-2.7,1.1-3.6.2-1,.8-2.7,1.2-4.2.5-1.4,1-3.3,1.2-4.6.2-1.2.6-3.1.7-4.1.1-1.1.5-2.7.6-4.1.1-1.3.4-3.1.5-3.9.1-.9.2-2.4.4-3.2.1-.8.1-2.1.2-3,.1-1,.1-2.5.2-3.8.1-1.1.1-3.2.1-4.6s0-3.3-.1-4.6ZM1169.2,299c-.1,1.2-.1,2.6-.2,3.5-.1.8-.1,2-.2,2.7-.1.8-.2,2.1-.3,2.9-.1.8-.3,2.4-.4,3.6-.1,1.2-.4,2.7-.5,3.7-.1.9-.4,2.6-.6,3.7-.2,1.2-.6,2.9-1.1,4.3-.3,1.3-.9,2.9-1.1,3.8-.2.8-.6,2.3-1,3.3-.3.9-1,2.6-1.3,3.7-.3,1-1.1,2.7-1.4,3.7-.3.9-1,2.4-1.4,3.3-.4.8-1.2,2.5-1.6,3.7-.4,1.2-1.5,2.8-2.1,4s-1.5,2.8-2.2,3.9c-.5,1-1.5,2.6-2,3.4-.4.8-1.3,2-1.6,2.5l-1.9,2.6c-.5.8-1.5,2.2-2.2,3-.7.9-1.7,2.3-2.5,3.3-.7.9-1.8,2.1-2.3,2.7-.5.7-1.4,1.6-2.1,2.3-.7.6-1.7,1.9-2.7,2.7-1,.9-2.3,2.4-3.3,3.3-1,.9-2,1.9-2.3,2.2s-1.2,1-2,1.7c-.8.8-1.9,1.6-2.5,2.1-.5.4-1.8,1.4-2.5,2-.6.5-2.1,1.6-3.1,2.3-1,.6-2.2,1.6-3,2.1-.9.5-2,1.4-2.8,1.9-.9.5-2.1,1.3-2.9,1.9-.9.4-2.1,1.3-2.9,1.7-.9.4-2.5,1.3-3.5,2-1.1.5-2.9,1.5-3.9,2-1.1.4-2.7,1.3-3.6,1.6-1,.3-2.6,1-3.7,1.5-1.2.4-3.1,1.2-4.1,1.5-1.2.3-2.8.9-3.7,1.3l-2.7.8-2.6.6c-.9.2-2.2.5-3.1.8-1,.2-2.6.6-3.5.8-1,.2-2.9.5-4.4.8-1.3.2-3.2.4-4.1.5-1,.1-2.5.2-3.4.3-1,.1-2.3.2-3.1.2s-1.8.1-2.7.1-2.8.1-4.4.1h-5.7c-1.6,0-3.5-.1-4.6-.2-1.1-.1-2.6-.2-3.5-.3-1-.1-2.3-.2-3.1-.3-.9-.1-2.2-.2-3.2-.4-1-.2-2.5-.3-3.4-.5l-3.5-.6c-1-.2-2.7-.6-3.8-.9-1.2-.2-2.8-.7-3.6-.9l-2.8-.8c-.7-.2-2-.6-3.1-.9l-3.3-1.2c-.9-.3-2.1-.8-2.8-1-.6-.2-2.1-.8-3.1-1.3-1-.4-2.6-1.2-3.6-1.6-1-.4-2.8-1.4-3.7-1.9l-3-1.6c-.5-.3-2-1.2-3.1-1.7-1.1-.5-2.7-1.6-3.6-2.2-.9-.5-2.5-1.6-3.4-2.2s-2.3-1.6-3.2-2.3c-.9-.6-2.1-1.6-2.8-2.2-.8-.6-1.7-1.4-2.5-2-.6-.5-1.8-1.5-2.6-2.2-.6-.6-2.1-2-3-2.7-1-.8-2.5-2.3-3.4-3.3-1-.9-2.1-2.2-2.6-2.7l-2.2-2.5c-.6-.8-1.8-2.3-2.7-3-.6-.8-1.8-2.3-2.5-3.1-.5-.8-1.6-2.2-2.2-2.9-.5-.8-1.6-2.3-2.2-3.3-.5-.9-1.5-2.4-2.1-3.4-.5-.9-1.5-2.5-2.1-3.7-.6-1.2-1.7-3-2.5-4.6-.7-1.5-1.6-3.4-2-4.1-.3-.8-1-2.2-1.3-2.9-.3-.8-1-2.3-1.3-3.4-.3-1.1-1-2.6-1.3-3.6-.3-.9-.9-2.5-1.2-3.5-.3-.9-.6-2.4-1-3.1-.3-.7-.5-2.1-.9-2.9-.2-.9-.6-2.5-.9-3.7-.2-1-.5-2.8-.9-3.9-.2-1-.4-2.7-.5-3.7-.1-.9-.3-2.4-.4-3.4-.1-.9-.2-2.4-.3-3.5-.1-1-.2-2.7-.2-3.8-.1-.9-.1-3.6-.1-6.2s0-5.1.1-6.2c.1-1,.2-2.6.2-3.7s.2-2.6.3-3.5c.1-.8.2-2.3.4-3.4.1-.9.3-2.6.5-3.7.2-1,.5-2.7.9-3.9.2-1.2.5-2.7.9-3.7.2-.9.6-2.3.9-2.9.3-.7.5-2.1,1-3,.3-1,.9-2.4,1.1-3.3.2-.8.6-2.1,1-2.7.2-.7.6-1.9,1.1-2.6.3-.8.9-2.1,1.2-2.8s1-2.1,1.3-2.8c.3-.8,1.2-2.5,2-4,.8-1.5,1.7-3.4,2.1-4,.3-.7,1.3-2.2,1.8-3.3.6-1,1.6-2.5,2.2-3.5.5-.9,1.5-2.3,2.1-3.1.5-.8,1.6-2.2,2.3-3.1.7-.9,1.9-2.4,2.7-3.4.9-.9,1.9-2.3,2.5-2.9.6-.6,1.8-2,2.5-2.7.8-.8,2.5-2.5,3.7-3.8,1.3-1.3,3.1-2.8,3.8-3.7.9-.6,2.1-2.2,2.9-2.7.9-.5,2.2-1.8,3-2.4.9-.6,2.2-1.8,2.9-2.3l2.6-1.9c.6-.4,1.7-1.2,2.3-1.6.5-.4,1.8-1.3,2.6-1.7.9-.4,2.1-1.3,3-1.9s2.3-1.4,3.2-1.8c.9-.4,2.7-1.4,4.1-2.1,1.4-.6,3.3-1.6,4.3-2,1-.3,2.5-1,3.5-1.5,1.1-.4,2.3-.9,3.1-1.3.9-.2,2.1-.8,3.2-1.2,1-.3,2.7-.9,3.8-1.3,1.2-.3,2.9-.9,3.9-1.2,1-.3,2.9-.8,4.1-1,1.2-.2,3.1-.7,4.1-.9,1.1-.2,2.8-.4,3.7-.7,1.1-.2,2.7-.4,3.7-.5,1-.1,2.7-.3,3.7-.4,1.1-.1,2.6-.2,3.6-.3,1.1-.1,2.7-.2,3.7-.2,1.1-.2,4,0,6.2,0s4.6.1,5.3.1,2.2.1,3.2.2c1,.1,2.3.2,3.3.3,1,.1,2.5.2,3.5.4,1.1.2,2.7.3,3.6.5,1,.1,2.6.4,3.6.6,1.1.2,2.5.4,3.3.7.6.1,2.1.4,2.9.6,1,.2,2.3.5,3.2.8.9.2,2.3.6,3.3,1,1,.3,2.7.9,3.7,1.3,1.2.3,2.7,1,3.5,1.3.9.3,2.2.9,2.9,1.2.9.2,2.2.9,3.2,1.4,1,.4,2.6,1.2,3.5,1.6,1,.4,2.5,1.3,3.4,1.7,1,.4,2.3,1.3,3.1,1.7.6.4,1.9,1.2,2.6,1.5l2.7,1.7c.9.5,2.1,1.4,2.8,1.9.6.4,2.1,1.5,2.9,2.1,1,.6,2.3,1.7,3.2,2.4.9.7,2.2,1.7,3.1,2.5.9.7,2.2,1.9,2.9,2.5.9.6,2.5,2.3,3.7,3.7,1.3,1.3,2.9,2.9,3.6,3.8.6.9,1.9,2.1,2.6,2.8.6.8,1.8,2.3,2.5,3.1.6.8,1.7,2.2,2.5,3.1.7.9,1.9,2.4,2.6,3.5.7,1,1.7,2.5,2.3,3.5.5.9,1.4,2.3,2,3,.4.8,1.3,2.3,1.9,3.1.4.8,1.4,2.4,1.8,3.5.4,1,1.3,2.5,1.7,3.5.4,1,1.1,2.2,1.4,2.8l1.2,2.6c.3.8,1,2.2,1.3,3.3.3.9,1.1,2.7,1.4,4,.3,1.3,1.1,3.3,1.4,4.5.3,1.2.9,2.9,1.1,3.9.2.9.5,2.5.9,3.5.2.9.6,2.7.9,3.8.2,1.2.4,2.9.6,4.1.1,1.2.3,2.7.4,3.6.1.8.2,2.2.3,2.9.1.8.1,2.1.2,2.7.1.6.1,2.3.2,3.5.1,1.2.1,3,.1,4.2s0,3.3-.1,4.3Z"/>
      <path class="st2" d="M1180.3,290.1c-.1-1.3-.1-3.1-.2-3.8-.1-.7-.1-2.1-.2-3-.1-.8-.2-2.4-.4-3.2-.1-1-.4-2.6-.5-3.9-.2-1.3-.5-3.2-.7-4.5-.4-1.2-.7-3.2-1-4.2-.4-1.1-.7-2.9-.9-3.8-.2-1.1-.8-3-1.2-4.3-.4-1.3-1.2-3.5-1.6-4.9-.4-1.4-1.2-3.5-1.5-4.4-.4-1.2-1.1-2.7-1.4-3.6l-1.3-2.9c-.4-.7-1.1-2-1.6-3.1s-1.4-2.7-1.9-3.8c-.5-1.2-1.6-3-2-3.8-.6-.8-1.6-2.5-2-3.3-.6-.8-1.6-2.4-2.1-3.3-.6-1.1-1.8-2.7-2.5-3.8-.8-1.2-2.1-2.9-2.9-3.8-.8-1-2-2.5-2.7-3.3-.7-.8-2-2.5-2.7-3.3-.8-.8-2.1-2.1-2.9-3.1-.7-1-2.5-2.7-3.9-4.2-1.3-1.6-3.1-3.3-4.1-4.1-.8-.7-2.3-2-3.2-2.7-1-.8-2.4-2-3.3-2.7-.9-.7-2.4-1.9-3.5-2.6-.9-.6-2.5-1.8-3.2-2.3-.8-.5-2.1-1.4-3.1-2l-3-1.9c-.8-.4-2.1-1.2-2.9-1.7-.8-.5-2.3-1.4-3.3-1.9-1-.5-2.6-1.4-3.7-1.9-1-.5-2.7-1.3-3.8-1.8-1.1-.6-2.5-1.3-3.5-1.5-.8-.4-2.3-1-3.2-1.3-.8-.4-2.5-1.1-3.8-1.4-1.1-.5-3-1.1-4.1-1.4-1.1-.4-2.6-.8-3.6-1.1-.9-.2-2.4-.6-3.5-.8-.9-.2-2.5-.6-3.2-.7-.8-.2-2.4-.5-3.6-.7-1.1-.2-2.9-.6-3.9-.7-.9-.2-2.7-.4-3.9-.6-1.1-.2-2.7-.4-3.8-.5-1.1-.1-2.5-.2-3.6-.4-1.1-.1-2.6-.2-3.5-.2s-3.6-.1-5.8-.1-5.6-.2-6.8,0c-1.1,0-2.9.1-4,.2-1.1.1-2.7.2-3.9.4-1.1.1-3,.4-4.1.5-1.1.1-2.9.4-4.1.6-1,.2-2.9.5-4.1.7-1.2.2-3.2.7-4.5.9-1.3.2-3.4.7-4.5,1.1-1.1.4-3,1-4.3,1.3-1.2.5-3.1,1.1-4.2,1.4-1.2.5-2.5,1.1-3.5,1.3-.9.5-2.3,1-3.4,1.4-1.1.6-2.7,1.3-3.8,1.7-1.1.4-3.1,1.4-4.6,2.1-1.6.7-3.6,1.8-4.5,2.3-.9.5-2.4,1.4-3.5,2-1.1.6-2.4,1.6-3.3,2-.8.5-2.3,1.4-2.9,1.9s-1.8,1.3-2.5,1.8l-2.9,2c-.8.6-2.3,1.9-3.2,2.5-.9.6-2.4,2-3.3,2.6-1,.6-2.3,2.3-3.2,3-.8,1-2.7,2.6-4.2,4.1-1.3,1.4-3.2,3.3-4.1,4.2-.8.8-2.1,2.3-2.7,3-.7.7-1.8,2.3-2.7,3.2-1,1.1-2.3,2.7-3,3.7-.7,1-1.9,2.5-2.5,3.3-.6.8-1.7,2.4-2.3,3.3-.6,1.1-1.8,2.7-2.4,3.8-.6,1.2-1.7,2.9-2,3.6-.4.7-1.4,2.7-2.3,4.4-.8,1.7-1.8,3.6-2.1,4.4-.4.8-1.1,2.3-1.4,3.1-.4.8-1,2.3-1.3,3.1-.5.8-1,2.1-1.2,2.9-.4.7-.8,2.1-1.1,3-.2.9-.8,2.5-1.2,3.6-.5,1.1-.7,2.6-1.1,3.3-.4.7-.7,2.3-.9,3.2-.4,1.1-.7,2.7-1,4.1-.4,1.3-.7,3.2-1,4.3-.2,1.2-.5,3.1-.6,4.1-.2,1.2-.4,2.9-.5,3.7-.1,1-.4,2.7-.4,3.8s-.1,3-.2,4.1c-.1,1.2-.1,3.9-.1,6.8s0,5.8.1,6.8c0,1.2.1,3.1.2,4.2.1,1.2.2,2.9.4,3.8.1,1.1.4,2.7.5,3.7.1,1.1.4,3,.6,4.1.4,1.2.7,3.2,1,4.3.4,1.3.7,3.1,1,4.1.4,1,.6,2.5.9,3.2.4.7.7,2.4,1.1,3.3.4,1.1,1,2.9,1.3,3.8.4,1.1,1.1,2.7,1.4,3.9.4,1.2,1.1,2.9,1.4,3.7.4.8,1.1,2.4,1.4,3.2.4.8,1.4,2.9,2.1,4.5.8,1.7,2.1,3.7,2.7,5,.6,1.3,1.7,3.1,2.3,4.1.6,1.1,1.7,2.7,2.3,3.7.6,1.1,1.8,2.7,2.4,3.6.6.8,1.8,2.4,2.4,3.2.7.8,2,2.5,2.7,3.3,1,.8,2.3,2.5,3,3.3l2.4,2.7c.6.6,1.8,2,2.9,3,1,1.1,2.6,2.7,3.7,3.6,1.1.8,2.6,2.3,3.3,3,.8.7,2.1,1.8,2.9,2.4.8.6,1.9,1.6,2.7,2.1.8.6,2.1,1.7,3.1,2.4,1,.7,2.5,1.9,3.5,2.5s2.7,1.8,3.7,2.4c1,.6,2.7,1.8,3.9,2.4s2.7,1.5,3.3,1.9l3.3,1.8c1,.5,3,1.5,4.1,2,1.1.5,2.9,1.3,3.9,1.8,1.1.6,2.6,1.2,3.3,1.4.8.2,2.1.7,3.1,1.1l3.6,1.3c1.2.2,2.6.7,3.3.9l3.1.8c.8.2,2.6.7,3.9,1,1.2.4,3.1.7,4.2.9l3.8.7c1,.2,2.6.4,3.7.6,1.1.2,2.5.4,3.5.5.9.1,2.4.2,3.4.4,1,.1,2.6.2,3.8.4,1.2.1,3.2.2,5,.2h6.2c1.7,0,3.8-.1,4.8-.1s2.4-.1,3-.1,2.3-.1,3.3-.2c1-.1,2.6-.2,3.7-.4,1.1-.1,3.1-.4,4.5-.6,1.6-.2,3.7-.6,4.8-.8,1-.2,2.7-.6,3.8-.8,1.1-.2,2.5-.6,3.4-.8l2.9-.7,3-.8c1-.5,2.7-1.1,4.1-1.4,1.2-.4,3.2-1.2,4.5-1.7,1.2-.6,3-1.3,4.1-1.7,1-.4,2.7-1.3,3.9-1.8,1.1-.5,3.1-1.5,4.3-2.1,1.1-.7,2.9-1.7,3.8-2.1,1-.5,2.3-1.4,3.2-1.9,1-.6,2.3-1.4,3.2-2,1-.5,2.1-1.4,3.1-2,.9-.5,2.3-1.6,3.3-2.3,1.1-.7,2.6-1.9,3.3-2.5.8-.6,2.1-1.7,2.7-2.1.7-.5,1.9-1.4,2.7-2.3.8-.8,1.8-1.5,2.1-1.9.4-.4,1.4-1.4,2.5-2.4,1.1-1,2.5-2.6,3.6-3.6,1.1-1,2.3-2.3,3-3,.7-.7,1.7-1.8,2.3-2.5.6-.7,1.8-2,2.5-3,.8-1.1,2-2.6,2.7-3.6.7-.9,1.8-2.5,2.4-3.3l2-2.9c.4-.6,1.3-1.9,1.8-2.7.5-.8,1.6-2.6,2.1-3.7.7-1.2,1.8-3,2.4-4.3.6-1.3,1.8-3.1,2.3-4.4.5-1.3,1.3-3.2,1.8-4.1.5-1,1.2-2.6,1.6-3.6.4-1.1,1.2-3,1.6-4.1.4-1.2,1.1-3.1,1.4-4.1.4-1.1.8-2.7,1.1-3.6.2-1,.8-2.7,1.2-4.2.5-1.4,1-3.3,1.2-4.6.2-1.2.6-3.1.7-4.1.1-1.1.5-2.7.6-4.1.1-1.3.4-3.1.5-3.9.1-.9.2-2.4.4-3.2.1-.8.1-2.1.2-3,.1-1,.1-2.5.2-3.8.1-1.1.1-3.2.1-4.6s0-3.3-.1-4.6ZM1169.2,299c-.1,1.2-.1,2.6-.2,3.5-.1.8-.1,2-.2,2.7-.1.8-.2,2.1-.3,2.9-.1.8-.3,2.4-.4,3.6-.1,1.2-.4,2.7-.5,3.7-.1.9-.4,2.6-.6,3.7-.2,1.2-.6,2.9-1.1,4.3-.3,1.3-.9,2.9-1.1,3.8-.2.8-.6,2.3-1,3.3-.3.9-1,2.6-1.3,3.7-.3,1-1.1,2.7-1.4,3.7-.3.9-1,2.4-1.4,3.3-.4.8-1.2,2.5-1.6,3.7-.4,1.2-1.5,2.8-2.1,4s-1.5,2.8-2.2,3.9c-.5,1-1.5,2.6-2,3.4-.4.8-1.3,2-1.6,2.5l-1.9,2.6c-.5.8-1.5,2.2-2.2,3-.7.9-1.7,2.3-2.5,3.3-.7.9-1.8,2.1-2.3,2.7-.5.7-1.4,1.6-2.1,2.3-.7.6-1.7,1.9-2.7,2.7-1,.9-2.3,2.4-3.3,3.3-1,.9-2,1.9-2.3,2.2s-1.2,1-2,1.7c-.8.8-1.9,1.6-2.5,2.1-.5.4-1.8,1.4-2.5,2-.6.5-2.1,1.6-3.1,2.3-1,.6-2.2,1.6-3,2.1-.9.5-2,1.4-2.8,1.9-.9.5-2.1,1.3-2.9,1.9-.9.4-2.1,1.3-2.9,1.7-.9.4-2.5,1.3-3.5,2-1.1.5-2.9,1.5-3.9,2-1.1.4-2.7,1.3-3.6,1.6-1,.3-2.6,1-3.7,1.5-1.2.4-3.1,1.2-4.1,1.5-1.2.3-2.8.9-3.7,1.3l-2.7.8-2.6.6c-.9.2-2.2.5-3.1.8-1,.2-2.6.6-3.5.8-1,.2-2.9.5-4.4.8-1.3.2-3.2.4-4.1.5-1,.1-2.5.2-3.4.3-1,.1-2.3.2-3.1.2s-1.8.1-2.7.1-2.8.1-4.4.1h-5.7c-1.6,0-3.5-.1-4.6-.2-1.1-.1-2.6-.2-3.5-.3-1-.1-2.3-.2-3.1-.3-.9-.1-2.2-.2-3.2-.4-1-.2-2.5-.3-3.4-.5l-3.5-.6c-1-.2-2.7-.6-3.8-.9-1.2-.2-2.8-.7-3.6-.9l-2.8-.8c-.7-.2-2-.6-3.1-.9l-3.3-1.2c-.9-.3-2.1-.8-2.8-1-.6-.2-2.1-.8-3.1-1.3-1-.4-2.6-1.2-3.6-1.6-1-.4-2.8-1.4-3.7-1.9l-3-1.6c-.5-.3-2-1.2-3.1-1.7-1.1-.5-2.7-1.6-3.6-2.2-.9-.5-2.5-1.6-3.4-2.2s-2.3-1.6-3.2-2.3c-.9-.6-2.1-1.6-2.8-2.2-.8-.6-1.7-1.4-2.5-2-.6-.5-1.8-1.5-2.6-2.2-.6-.6-2.1-2-3-2.7-1-.8-2.5-2.3-3.4-3.3-1-.9-2.1-2.2-2.6-2.7l-2.2-2.5c-.6-.8-1.8-2.3-2.7-3-.6-.8-1.8-2.3-2.5-3.1-.5-.8-1.6-2.2-2.2-2.9-.5-.8-1.6-2.3-2.2-3.3-.5-.9-1.5-2.4-2.1-3.4-.5-.9-1.5-2.5-2.1-3.7-.6-1.2-1.7-3-2.5-4.6-.7-1.5-1.6-3.4-2-4.1-.3-.8-1-2.2-1.3-2.9-.3-.8-1-2.3-1.3-3.4-.3-1.1-1-2.6-1.3-3.6-.3-.9-.9-2.5-1.2-3.5-.3-.9-.6-2.4-1-3.1-.3-.7-.5-2.1-.9-2.9-.2-.9-.6-2.5-.9-3.7-.2-1-.5-2.8-.9-3.9-.2-1-.4-2.7-.5-3.7-.1-.9-.3-2.4-.4-3.4-.1-.9-.2-2.4-.3-3.5-.1-1-.2-2.7-.2-3.8-.1-.9-.1-3.6-.1-6.2s0-5.1.1-6.2c.1-1,.2-2.6.2-3.7s.2-2.6.3-3.5c.1-.8.2-2.3.4-3.4.1-.9.3-2.6.5-3.7.2-1,.5-2.7.9-3.9.2-1.2.5-2.7.9-3.7.2-.9.6-2.3.9-2.9.3-.7.5-2.1,1-3,.3-1,.9-2.4,1.1-3.3.2-.8.6-2.1,1-2.7.2-.7.6-1.9,1.1-2.6.3-.8.9-2.1,1.2-2.8s1-2.1,1.3-2.8c.3-.8,1.2-2.5,2-4,.8-1.5,1.7-3.4,2.1-4,.3-.7,1.3-2.2,1.8-3.3.6-1,1.6-2.5,2.2-3.5.5-.9,1.5-2.3,2.1-3.1.5-.8,1.6-2.2,2.3-3.1.7-.9,1.9-2.4,2.7-3.4.9-.9,1.9-2.3,2.5-2.9.6-.6,1.8-2,2.5-2.7.8-.8,2.5-2.5,3.7-3.8,1.3-1.3,3.1-2.8,3.8-3.7.9-.6,2.1-2.2,2.9-2.7.9-.5,2.2-1.8,3-2.4.9-.6,2.2-1.8,2.9-2.3l2.6-1.9c.6-.4,1.7-1.2,2.3-1.6.5-.4,1.8-1.3,2.6-1.7.9-.4,2.1-1.3,3-1.9s2.3-1.4,3.2-1.8c.9-.4,2.7-1.4,4.1-2.1,1.4-.6,3.3-1.6,4.3-2,1-.3,2.5-1,3.5-1.5,1.1-.4,2.3-.9,3.1-1.3.9-.2,2.1-.8,3.2-1.2,1-.3,2.7-.9,3.8-1.3,1.2-.3,2.9-.9,3.9-1.2,1-.3,2.9-.8,4.1-1,1.2-.2,3.1-.7,4.1-.9,1.1-.2,2.8-.4,3.7-.7,1.1-.2,2.7-.4,3.7-.5,1-.1,2.7-.3,3.7-.4,1.1-.1,2.6-.2,3.6-.3,1.1-.1,2.7-.2,3.7-.2,1.1-.2,4,0,6.2,0s4.6.1,5.3.1,2.2.1,3.2.2c1,.1,2.3.2,3.3.3,1,.1,2.5.2,3.5.4,1.1.2,2.7.3,3.6.5,1,.1,2.6.4,3.6.6,1.1.2,2.5.4,3.3.7.6.1,2.1.4,2.9.6,1,.2,2.3.5,3.2.8.9.2,2.3.6,3.3,1,1,.3,2.7.9,3.7,1.3,1.2.3,2.7,1,3.5,1.3.9.3,2.2.9,2.9,1.2.9.2,2.2.9,3.2,1.4,1,.4,2.6,1.2,3.5,1.6,1,.4,2.5,1.3,3.4,1.7,1,.4,2.3,1.3,3.1,1.7.6.4,1.9,1.2,2.6,1.5l2.7,1.7c.9.5,2.1,1.4,2.8,1.9.6.4,2.1,1.5,2.9,2.1,1,.6,2.3,1.7,3.2,2.4.9.7,2.2,1.7,3.1,2.5.9.7,2.2,1.9,2.9,2.5.9.6,2.5,2.3,3.7,3.7,1.3,1.3,2.9,2.9,3.6,3.8.6.9,1.9,2.1,2.6,2.8.6.8,1.8,2.3,2.5,3.1.6.8,1.7,2.2,2.5,3.1.7.9,1.9,2.4,2.6,3.5.7,1,1.7,2.5,2.3,3.5.5.9,1.4,2.3,2,3,.4.8,1.3,2.3,1.9,3.1.4.8,1.4,2.4,1.8,3.5.4,1,1.3,2.5,1.7,3.5.4,1,1.1,2.2,1.4,2.8l1.2,2.6c.3.8,1,2.2,1.3,3.3.3.9,1.1,2.7,1.4,4,.3,1.3,1.1,3.3,1.4,4.5.3,1.2.9,2.9,1.1,3.9.2.9.5,2.5.9,3.5.2.9.6,2.7.9,3.8.2,1.2.4,2.9.6,4.1.1,1.2.3,2.7.4,3.6.1.8.2,2.2.3,2.9.1.8.1,2.1.2,2.7.1.6.1,2.3.2,3.5.1,1.2.1,3,.1,4.2s0,3.3-.1,4.3Z"/>
    </g>
    <path class="st5" d="M1132.5,244.2c-.1-.7-.2-1.9-.4-2.5-.1-.6-.4-1.8-.5-2.6-.1-.8-.5-2-.7-2.6-.2-.6-.6-1.7-.7-2.3-.2-.6-.7-1.8-1.2-2.5-.5-.7-1.1-2-1.4-2.7-.4-.7-1.1-1.8-1.4-2.4-.4-.6-1.1-1.7-1.5-2.1-.4-.6-1.2-1.6-1.6-2-.4-.5-1.3-1.5-1.8-2.1-.5-.6-1.5-1.8-2.3-2.4-.6-.6-1.9-1.9-2.7-2.5-.8-.6-2.1-1.9-3.1-2.5-.9-.6-2.1-1.7-2.9-2.1-.6-.5-1.9-1.3-2.7-1.8-.7-.5-2-1.3-2.9-1.7-.8-.4-1.9-1.1-2.5-1.5-.6-.5-2.3-1.1-3.5-1.8-1.2-.7-3-1.4-3.8-1.8-.9-.4-2.5-1-3.7-1.4-1.2-.4-2.7-.9-3.5-1.3-.7-.2-2.1-.6-3-.8-.7-.2-2.3-.6-3.3-.8-1.1-.2-2.5-.6-3.5-.7-.9-.1-2.4-.5-3.6-.7-1.2-.2-3-.5-3.8-.6-1-.1-2.5-.2-3.6-.4s-2.7-.2-3.6-.2c-1.1-.6-2.9-.6-3.9-.7h-3.3c-.6,0-1.9,0-2.9.1-1.1.1-2.5.1-3.3.2l-3.1.4c-.9.1-2.3.2-3.2.5-1,.1-2.4.4-3.2.5-.7.1-2.1.5-2.9.6-.7.1-2.5.5-4.1.8l-4.5.8c-1,.2-2.5.5-3.5.7-1.1.2-2.7.6-3.7,1-1.1.4-2.9.7-3.8,1.1-.9.4-2.7.8-3.7,1.1-1.1.2-2.7.8-3.7,1.3-1.1.4-2.5,1-3.5,1.4-1,.4-2.4,1-3.5,1.6-1.1.5-2.3,1.1-3.1,1.7-.7.5-1.9,1.1-2.5,1.7-.6.5-1.8,1.3-2.3,1.7-.5.4-1.6,1.3-2,1.9-.6.6-1.3,1.4-1.8,2-.5.6-1,1.3-1.3,2-.2.6-.5,1.1-.7,1.8-.1.5-.2.9-.4,1.5-.1.4-.1,1.1-.2,1.6v1.8c.1.6.2,1.3.4,1.9.1.5.4,1.3.5,1.8.1.5.5,1.1.7,1.7.2.5.6,1,.7,1.4.4.5.7.8,1.2,1.3.5.4,1.1.8,1.6,1.1.5.2,1.1.5,1.6.7.6.2,1.2.4,1.8.6.6.1,1.5.2,2,.4h2.5c.7,0,1.5-.1,2.3-.2.4-.1,1.2-.2,1.7-.4.5-.1,1.3-.4,1.8-.6.6-.2,1.2-.5,1.7-.7.5-.2,1.1-.6,1.6-.8.4-.2,1.2-.8,1.8-1.6.6-.6,1.9-1.8,3-2.6,1.1-.8,3-2.4,4.1-3.6,1.2-1.1,3.1-2.5,4.1-3.2,1.1-.7,2.5-1.9,3.5-2.6.9-.7,2.1-1.6,2.7-1.9.5-.4,1.6-1.1,2.3-1.7.7-.5,1.9-1.3,2.5-1.7.6-.4,1.6-.8,2.3-1.3.6-.4,1.7-.8,2.1-1.1.5-.2,1.7-.6,2.3-.8.7-.2,1.5-.5,2.3-.6.6-.1,1.7-.4,2.1-.4s1.7-.2,2.3-.2c.6-.1,1.8-.2,2.5-.2s2.9-.1,5.6-.1,4.9,0,6.4.1c1.3.1,3.1.2,4.1.4,1.1.1,2.7.2,3.8.5,1.2.1,2.5.4,3.3.5.6.1,2.1.4,3.2.6,1.1.2,2.9.6,3.8.8,1.1.2,2.7.7,3.8,1.1,1.2.4,2.5.8,3.3,1.1.7.2,2,.7,2.7,1,.7.2,2.3.9,3.5,1.7,1.2.7,2.9,1.4,3.7,1.9,1,.5,2,1.3,2.9,1.7.7.4,1.8,1.1,2.5,1.7.6.5,1.8,1.3,2.3,1.8.6.5,1.7,1.4,2.4,2l2.1,2.1c.5.5,1.3,1.4,1.8,1.9.5.5,1.1,1.3,1.3,1.7.2.4,1,1.3,1.4,2,.4.7,1.1,1.7,1.4,2.3s.7,1.4,1.1,2c.2.5.6,1.4.7,2,.2.5.5,1.4.6,2,.1.5.4,1.4.5,1.9.1.5.2,1.4.4,2,.1,1.1.1,2.3.1,3.3s0,2.7-.1,3.3c-.1.6-.1,1.7-.2,2.3-.1.6-.2,1.8-.4,2.5-.1.7-.4,2.1-.7,3.1-.2,1-.6,2.5-.9,3.2-.2.7-.7,2.3-1.2,3.1-.4.8-1.1,2.4-1.5,3.3-.5,1-1.3,2.4-1.7,3.1s-1.2,2-1.8,2.7c-.5.7-1.3,1.9-1.8,2.5s-1.2,1.5-1.7,2.1c-.5.6-1.4,1.7-2,2.3-.6.7-1.9,1.9-2.7,2.6-1,.7-2,1.8-2.5,2.3-.5.5-1.7,1.4-2.4,1.9-.7.5-2.1,1.5-3.2,2.1s-2.4,1.6-3.2,2c-.7.5-2.3,1.3-3.5,1.9-1.2.6-2.9,1.4-3.7,1.8-.9.4-2.5,1-3.6,1.6-1.1.4-2.9,1.1-3.9,1.5-1.2.4-2.5.8-3.3,1-.7.2-2.1.6-3.2.8-1.1.2-2.7.6-3.8.8-1.2.2-3,.6-3.8.7-.8.1-2.7.5-3.6.6-1.1.1-2.5.4-3.4.5-1,.1-2.7.2-4.1.4-1.4.1-2.7.2-2.9.2h-.2v-2.4c0-1.3,0-3,.1-3.8v-1.4l1.8-.2c1.1-.1,2.7-.4,3.8-.5,1.2-.1,2.7-.5,3.6-.7,1-.2,2.4-.6,3.3-.8.9-.2,2.1-.6,2.9-.8.6-.2,1.9-.6,2.9-1,.9-.4,2.4-.8,3.3-1.3,1-.4,2.5-1.1,3.6-1.7,1.1-.5,2.4-1.3,3.2-1.7.7-.4,1.9-1.1,2.7-1.5.7-.4,2.3-1.4,3.2-2,1.1-.6,2.4-1.7,3.2-2.1.7-.5,2.1-1.7,3.2-2.5,1.1-.8,2.5-2,3.2-2.6.7-.6,2.1-1.9,3.2-2.9,1.1-1,2.9-2.6,3.8-3.8,1.1-1.1,2.4-2.5,3.1-3.2.6-.7,1.7-1.9,2.3-2.7.6-.7,1.8-2.3,2.5-3.1.7-.8,1.8-2.3,2.3-3,.5-.7,1.5-2.1,2-3,.6-.8,1.6-2.3,2-3.1.5-.8,1.3-2,1.7-2.7.4-.6.6-1.1.6-1.3h-147.7l.4.7c.2.4.7,1.4,1.3,2.1.5.7,1.3,2,1.8,2.7.5.7,1.4,2.1,2,3,.6.8,1.7,2.3,2.3,3.1.6.8,1.8,2.3,2.5,3.2.7,1,1.9,2.3,2.5,3,.6.7,1.9,2.1,2.9,3,1,.8,2.4,2.5,3.6,3.7,1.2,1.2,2.4,2.4,3.1,2.7.6.4,1.7,1.4,2.3,2,.6.6,1.8,1.6,2.4,2s1.9,1.6,2.7,2c.7.5,2.4,1.7,3.3,2.4,1,.7,2.3,1.6,2.9,1.8.5.2,1.8,1.1,2.9,1.7,1.1.5,2.5,1.4,3.5,1.8.9.5,2.4,1.1,3.2,1.6,1,.4,2.3,1,3.1,1.3,1,.2,2.4.8,3.6,1.3,1.2.4,2.9.8,3.8,1.1,1.1.2,2.4.6,3.3.7.9.1,2.3.5,3.2.6,1,.1,2.5.4,3.6.5l2.1.2h.2v8.7h-1.5c0,.1-3,.5-3,.5-1.2.1-2.5.4-3.2.5l-3.1.5c-1.1.2-2.9.5-3.7.7-1,.2-2.3.5-3.2.7-.7.2-2,.5-2.7.7-.6.2-1.9.6-2.5.7s-2.1.7-3.2,1.1c-1.1.4-2.7,1.1-3.6,1.7-1,.4-1.8.8-2.5,1.4-.5.4-1.3.8-1.8,1.3-.5.4-1.3,1.1-1.7,1.6-.4.4-1.2,1.1-1.4,1.6-.4.5-.7.8-1.1,1.4-.2.4-.5.8-.6,1.4-.2.5-.4,1-.5,1.7-.1.7-.2,1.4-.2,2.1s0,1.3.1,1.9c0,.4.2.8.4,1.3.1.5.4,1,.6,1.6.2.6.5,1,.9,1.6.2.4,1,1.1,1.2,1.5.5.6,1.1,1.1,1.7,1.7s1.3,1.1,1.9,1.6c.5.4,1.3.8,1.7,1.3.4.4,1.3.7,1.9,1.1.6.4,1.9.9,2.7,1.4.7.4,2.4,1.1,3.5,1.6l3.3,1.4c.7.4,2.9,1.3,4.5,2.1,1.7.8,3.8,2,4.9,2.5,1.1.5,2.7,1.6,3.8,2.1l3.8,2.4,2.3,1.4.4.2v9.9c0,7.6,0,9.8-.1,9.8l-1.3.2c-.6.1-1.9.5-2.9.7-1,.2-2.3.7-3,1.1-.7.4-1.9.8-2.5,1.3-.6.4-1.7,1-2.3,1.4-.6.4-1.7,1.1-2.3,1.7-.6.5-1.7,1.3-2.3,1.8-.6.5-1.7,1.6-2.3,2.1-.7.6-1.7,1.7-2.1,2.1-.5.5-1.3,1.4-1.7,2-.4.6-1.3,1.7-1.7,2.3-.4.6-1.2,1.7-1.6,2.1-.4.5-.9,1.3-1.1,1.7l-.4.6h66c0-.1-.2-.5-.5-.8-.2-.5-1-1.4-1.3-2-.4-.6-1.2-1.7-1.5-2.3-.4-.6-1.3-1.8-2-2.5-.7-.7-1.9-2.1-3-3-.9-.8-2.3-2.1-3-2.6-.7-.5-1.8-1.4-2.4-1.9-.6-.5-1.7-1.1-2.3-1.6-.6-.4-1.9-1.1-2.9-1.6-.9-.5-2.1-.9-2.9-1.3-.6-.2-1.8-.6-2.5-.8-.7-.2-1.7-.5-2.3-.6l-1.1-.2v-6.1c0-3.2,0-6.1.1-6.1s1.2.7,2.5,1.8l4.8,3.3c1.3.8,3.3,2.5,4.8,3.6,1.4,1,3.7,2.7,5.2,3.9,1.6,1.1,4.1,3,5.6,4.1l4.6,3.1c1.1.6,2.3,1.6,2.9,1.9.5.4,1.3.7,1.6.8.2.1.5.1.6.2.1,0,.2,0,.2-.2-.1-.4-.2-.6-.5-.8-.4-.5-.7-1-1.2-1.6-.5-.6-1.3-1.6-2.1-2.4-.8-.8-2.5-2.6-3.9-3.9-1.4-1.3-3.6-3.3-5.1-4.6-1.6-1.3-3.6-3-4.8-4.1l-4.3-3.7c-1.2-1-3.2-2.5-4.3-3.3-1.2-.8-3-2.4-3.9-3.1l-2.1-1.7h-.2v-39.9h1.1l3.8-.2c1.6-.1,3.6-.2,4.6-.4,1.1-.1,2.7-.2,3.6-.4,1.1-.1,2.7-.4,3.7-.5,1.1-.1,2.9-.5,3.7-.6l3.3-.7c.9-.2,2.4-.6,3.5-.8,1.1-.2,2.5-.7,3.4-.9,1-.2,2.4-.7,3.2-1,.7-.2,2.1-.7,3.1-1.1,1-.4,2-.7,2.9-1.1.6-.2,2-.8,2.9-1.3,1-.4,2.3-1,3.1-1.6.7-.4,2.1-1.1,3-1.5.7-.4,1.9-1.1,2.5-1.4.6-.4,1.9-1.3,3-1.9,1.1-.5,2.5-1.8,3.5-2.4.9-.6,2.5-1.9,3.4-2.6,1-.7,2.3-2,3.1-2.6.7-.6,1.8-1.8,2.3-2.3.5-.5,1.4-1.4,1.8-1.9.4-.4,1.2-1.3,1.7-2,.5-.7,1.3-1.7,1.7-2.1.4-.5,1.1-1.4,1.4-1.9.4-.5,1.1-1.6,1.5-2.3.4-.6,1.1-1.7,1.3-2.1.2-.5.9-1.6,1.2-2.1.4-.6.9-1.8,1.2-2.4.2-.6.9-1.9,1.2-2.6.4-.8,1.1-2.5,1.4-3.8.4-1.3,1.1-3.1,1.3-4.2.2-.9.6-2.5.7-3.3.1-.8.4-2.3.5-2.9.1-.6.2-1.9.4-2.6s.1-2.5.2-4.6c0-1.5,0-3.1-.1-4.6ZM1037.4,330.4c0,8.2,0,15-.1,15.5v.6l-3-1.9c-1.7-1.1-3.8-2.4-4.9-3-1.1-.6-2.7-1.5-3.6-2.1-1-.5-2.9-1.6-4.1-2.1s-3.1-1.6-3.8-1.9c-.7-.4-2-1-2.9-1.3-.6-.2-1.8-1-2.3-1.3-.5-.2-1.5-.9-2-1.3-.5-.2-1.3-.8-1.7-1.3-.4-.4-1.2-1-1.6-1.4-.4-.4-.7-.7-1.1-1.3-.2-.4-.4-.6-.5-.9-.1-.2-.1-.5-.1-.8s.1-.5.2-.7c.2-.4.6-.7,1.1-1.1.5-.5,1.2-.8,1.7-1.4.5-.2,1.4-.8,2.1-1.1.6-.4,1.8-.8,2.3-1,.5-.1,1.9-.6,2.9-.9,1-.4,2.5-.7,3.7-1,1.2-.2,2.9-.6,3.8-.8,1.1-.2,2.9-.5,3.9-.7l3.6-.5c.7-.1,2.4-.2,3.6-.4l2.4-.5h.2v14.8Z"/>
  </g>
</svg>