<?xml version="1.0" encoding="UTF-8"?>
<svg id="Layer_2" data-name="Layer 2" xmlns="http://www.w3.org/2000/svg" viewBox="0 0 269.69 264.89">
  <defs>
    <style>
      .cls-1 {
        fill: none;
        stroke: #27a038;
        stroke-miterlimit: 10;
        stroke-width: 10px;
      }

      .cls-2 {
        fill: #27a038;
      }
    </style>
  </defs>
  <g id="Layer_1-2" data-name="Layer 1">
    <g>
      <g>
        <path class="cls-2" d="M264.6,127.39c-.1-1.3-.1-3.1-.2-3.8-.1-.7-.1-2.1-.2-3-.1-.8-.2-2.4-.4-3.2-.1-1-.4-2.6-.5-3.9-.2-1.3-.5-3.2-.7-4.5-.4-1.2-.7-3.2-1-4.2-.4-1.1-.7-2.9-.9-3.8-.2-1.1-.8-3-1.2-4.3-.4-1.3-1.2-3.5-1.6-4.9s-1.2-3.5-1.5-4.4c-.4-1.2-1.1-2.7-1.4-3.6l-1.3-2.9c-.4-.7-1.1-2-1.6-3.1s-1.4-2.7-1.9-3.8c-.5-1.2-1.6-3-2-3.8-.6-.8-1.6-2.5-2-3.3-.6-.8-1.6-2.4-2.1-3.3-.6-1.1-1.8-2.7-2.5-3.8-.8-1.2-2.1-2.9-2.9-3.8-.8-1-2-2.5-2.7-3.3s-2-2.5-2.7-3.3c-.8-.8-2.1-2.1-2.9-3.1-.7-1-2.5-2.7-3.9-4.2-1.3-1.6-3.1-3.3-4.1-4.1-.8-.7-2.3-2-3.2-2.7-1-.8-2.4-2-3.3-2.7s-2.4-1.9-3.5-2.6c-.9-.6-2.5-1.8-3.2-2.3-.8-.5-2.1-1.4-3.1-2l-3-1.9c-.8-.4-2.1-1.2-2.9-1.7s-2.3-1.4-3.3-1.9-2.6-1.4-3.7-1.9c-1-.5-2.7-1.3-3.8-1.8-1.1-.6-2.5-1.3-3.5-1.5-.8-.4-2.3-1-3.2-1.3-.8-.4-2.5-1.1-3.8-1.4-1.1-.5-3-1.1-4.1-1.4-1.1-.4-2.6-.8-3.6-1.1-.9-.2-2.4-.6-3.5-.8-.9-.2-2.5-.6-3.2-.7-.8-.2-2.4-.5-3.6-.7-1.1-.2-2.9-.6-3.9-.7-.9-.2-2.7-.4-3.9-.6-1.1-.2-2.7-.4-3.8-.5-1.1-.1-2.5-.2-3.6-.4-1.1-.1-2.6-.2-3.5-.2s-3.6-.1-5.8-.1-5.6-.2-6.8,0c-1.1,0-2.9.1-4,.2-1.1.1-2.7.2-3.9.4-1.1.1-3,.4-4.1.5s-2.9.4-4.1.6c-1,.2-2.9.5-4.1.7-1.2.2-3.2.7-4.5.9s-3.4.7-4.5,1.1c-1.1.4-3,1-4.3,1.3-1.2.5-3.1,1.1-4.2,1.4-1.2.5-2.5,1.1-3.5,1.3-.9.5-2.3,1-3.4,1.4-1.1.6-2.7,1.3-3.8,1.7s-3.1,1.4-4.6,2.1c-1.6.7-3.6,1.8-4.5,2.3s-2.4,1.4-3.5,2-2.4,1.6-3.3,2c-.8.5-2.3,1.4-2.9,1.9s-1.8,1.3-2.5,1.8l-2.9,2c-.8.6-2.3,1.9-3.2,2.5s-2.4,2-3.3,2.6c-1,.6-2.3,2.3-3.2,3-.8,1-2.7,2.6-4.2,4.1-1.3,1.4-3.2,3.3-4.1,4.2-.8.8-2.1,2.3-2.7,3-.7.7-1.8,2.3-2.7,3.2-1,1.1-2.3,2.7-3,3.7s-1.9,2.5-2.5,3.3-1.7,2.4-2.3,3.3c-.6,1.1-1.8,2.7-2.4,3.8-.6,1.2-1.7,2.9-2,3.6-.4.7-1.4,2.7-2.3,4.4-.8,1.7-1.8,3.6-2.1,4.4-.4.8-1.1,2.3-1.4,3.1-.4.8-1,2.3-1.3,3.1-.5.8-1,2.1-1.2,2.9-.4.7-.8,2.1-1.1,3-.2.9-.8,2.5-1.2,3.6-.5,1.1-.7,2.6-1.1,3.3-.4.7-.7,2.3-.9,3.2-.4,1.1-.7,2.7-1,4.1-.4,1.3-.7,3.2-1,4.3-.2,1.2-.5,3.1-.6,4.1-.2,1.2-.4,2.9-.5,3.7-.1,1-.4,2.7-.4,3.8s-.1,3-.2,4.1c-.1,1.2-.1,3.9-.1,6.8s0,5.8.1,6.8c0,1.2.1,3.1.2,4.2.1,1.2.2,2.9.4,3.8.1,1.1.4,2.7.5,3.7.1,1.1.4,3,.6,4.1.4,1.2.7,3.2,1,4.3.4,1.3.7,3.1,1,4.1.4,1,.6,2.5.9,3.2.4.7.7,2.4,1.1,3.3.4,1.1,1,2.9,1.3,3.8.4,1.1,1.1,2.7,1.4,3.9.4,1.2,1.1,2.9,1.4,3.7.4.8,1.1,2.4,1.4,3.2.4.8,1.4,2.9,2.1,4.5.8,1.7,2.1,3.7,2.7,5,.6,1.3,1.7,3.1,2.3,4.1.6,1.1,1.7,2.7,2.3,3.7.6,1.1,1.8,2.7,2.4,3.6.6.8,1.8,2.4,2.4,3.2.7.8,2,2.5,2.7,3.3,1,.8,2.3,2.5,3,3.3l2.4,2.7c.6.6,1.8,2,2.9,3,1,1.1,2.6,2.7,3.7,3.6,1.1.8,2.6,2.3,3.3,3,.8.7,2.1,1.8,2.9,2.4.8.6,1.9,1.6,2.7,2.1.8.6,2.1,1.7,3.1,2.4,1,.7,2.5,1.9,3.5,2.5s2.7,1.8,3.7,2.4,2.7,1.8,3.9,2.4,2.7,1.5,3.3,1.9l3.3,1.8c1,.5,3,1.5,4.1,2s2.9,1.3,3.9,1.8c1.1.6,2.6,1.2,3.3,1.4.8.2,2.1.7,3.1,1.1l3.6,1.3c1.2.2,2.6.7,3.3.9l3.1.8c.8.2,2.6.7,3.9,1,1.2.4,3.1.7,4.2.9l3.8.7c1,.2,2.6.4,3.7.6s2.5.4,3.5.5c.9.1,2.4.2,3.4.4,1,.1,2.6.2,3.8.4,1.2.1,3.2.2,5,.2h6.2c1.7,0,3.8-.1,4.8-.1s2.4-.1,3-.1,2.3-.1,3.3-.2,2.6-.2,3.7-.4c1.1-.1,3.1-.4,4.5-.6,1.6-.2,3.7-.6,4.8-.8,1-.2,2.7-.6,3.8-.8,1.1-.2,2.5-.6,3.4-.8l2.9-.7,3-.8c1-.5,2.7-1.1,4.1-1.4,1.2-.4,3.2-1.2,4.5-1.7,1.2-.6,3-1.3,4.1-1.7,1-.4,2.7-1.3,3.9-1.8,1.1-.5,3.1-1.5,4.3-2.1,1.1-.7,2.9-1.7,3.8-2.1,1-.5,2.3-1.4,3.2-1.9,1-.6,2.3-1.4,3.2-2,1-.5,2.1-1.4,3.1-2,.9-.5,2.3-1.6,3.3-2.3,1.1-.7,2.6-1.9,3.3-2.5.8-.6,2.1-1.7,2.7-2.1.7-.5,1.9-1.4,2.7-2.3.8-.8,1.8-1.5,2.1-1.9.4-.4,1.4-1.4,2.5-2.4s2.5-2.6,3.6-3.6,2.3-2.3,3-3,1.7-1.8,2.3-2.5c.6-.7,1.8-2,2.5-3,.8-1.1,2-2.6,2.7-3.6.7-.9,1.8-2.5,2.4-3.3l2-2.9c.4-.6,1.3-1.9,1.8-2.7.5-.8,1.6-2.6,2.1-3.7.7-1.2,1.8-3,2.4-4.3s1.8-3.1,2.3-4.4,1.3-3.2,1.8-4.1c.5-1,1.2-2.6,1.6-3.6.4-1.1,1.2-3,1.6-4.1.4-1.2,1.1-3.1,1.4-4.1.4-1.1.8-2.7,1.1-3.6.2-1,.8-2.7,1.2-4.2.5-1.4,1-3.3,1.2-4.6.2-1.2.6-3.1.7-4.1.1-1.1.5-2.7.6-4.1.1-1.3.4-3.1.5-3.9.1-.9.2-2.4.4-3.2.1-.8.1-2.1.2-3,.1-1,.1-2.5.2-3.8.1-1.1.1-3.2.1-4.6s0-3.3-.1-4.6l.2-.4ZM253.5,136.29c-.1,1.2-.1,2.6-.2,3.5-.1.8-.1,2-.2,2.7-.1.8-.2,2.1-.3,2.9-.1.8-.3,2.4-.4,3.6s-.4,2.7-.5,3.7c-.1.9-.4,2.6-.6,3.7-.2,1.2-.6,2.9-1.1,4.3-.3,1.3-.9,2.9-1.1,3.8-.2.8-.6,2.3-1,3.3-.3.9-1,2.6-1.3,3.7-.3,1-1.1,2.7-1.4,3.7-.3.9-1,2.4-1.4,3.3-.4.8-1.2,2.5-1.6,3.7s-1.5,2.8-2.1,4-1.5,2.8-2.2,3.9c-.5,1-1.5,2.6-2,3.4-.4.8-1.3,2-1.6,2.5l-1.9,2.6c-.5.8-1.5,2.2-2.2,3-.7.9-1.7,2.3-2.5,3.3-.7.9-1.8,2.1-2.3,2.7-.5.7-1.4,1.6-2.1,2.3-.7.6-1.7,1.9-2.7,2.7-1,.9-2.3,2.4-3.3,3.3s-2,1.9-2.3,2.2-1.2,1-2,1.7c-.8.8-1.9,1.6-2.5,2.1-.5.4-1.8,1.4-2.5,2-.6.5-2.1,1.6-3.1,2.3-1,.6-2.2,1.6-3,2.1-.9.5-2,1.4-2.8,1.9-.9.5-2.1,1.3-2.9,1.9-.9.4-2.1,1.3-2.9,1.7-.9.4-2.5,1.3-3.5,2-1.1.5-2.9,1.5-3.9,2-1.1.4-2.7,1.3-3.6,1.6-1,.3-2.6,1-3.7,1.5-1.2.4-3.1,1.2-4.1,1.5-1.2.3-2.8.9-3.7,1.3l-2.7.8-2.6.6c-.9.2-2.2.5-3.1.8-1,.2-2.6.6-3.5.8-1,.2-2.9.5-4.4.8-1.3.2-3.2.4-4.1.5-1,.1-2.5.2-3.4.3-1,.1-2.3.2-3.1.2s-1.8.1-2.7.1-2.8.1-4.4.1h-5.7c-1.6,0-3.5-.1-4.6-.2s-2.6-.2-3.5-.3c-1-.1-2.3-.2-3.1-.3-.9-.1-2.2-.2-3.2-.4-1-.2-2.5-.3-3.4-.5l-3.5-.6c-1-.2-2.7-.6-3.8-.9-1.2-.2-2.8-.7-3.6-.9l-2.8-.8c-.7-.2-2-.6-3.1-.9l-3.3-1.2c-.9-.3-2.1-.8-2.8-1-.6-.2-2.1-.8-3.1-1.3-1-.4-2.6-1.2-3.6-1.6s-2.8-1.4-3.7-1.9l-3-1.6c-.5-.3-2-1.2-3.1-1.7s-2.7-1.6-3.6-2.2c-.9-.5-2.5-1.6-3.4-2.2s-2.3-1.6-3.2-2.3c-.9-.6-2.1-1.6-2.8-2.2-.8-.6-1.7-1.4-2.5-2-.6-.5-1.8-1.5-2.6-2.2-.6-.6-2.1-2-3-2.7-1-.8-2.5-2.3-3.4-3.3-1-.9-2.1-2.2-2.6-2.7l-2.2-2.5c-.6-.8-1.8-2.3-2.7-3-.6-.8-1.8-2.3-2.5-3.1-.5-.8-1.6-2.2-2.2-2.9-.5-.8-1.6-2.3-2.2-3.3-.5-.9-1.5-2.4-2.1-3.4-.5-.9-1.5-2.5-2.1-3.7s-1.7-3-2.5-4.6c-.7-1.5-1.6-3.4-2-4.1-.3-.8-1-2.2-1.3-2.9-.3-.8-1-2.3-1.3-3.4s-1-2.6-1.3-3.6c-.3-.9-.9-2.5-1.2-3.5-.3-.9-.6-2.4-1-3.1-.3-.7-.5-2.1-.9-2.9-.2-.9-.6-2.5-.9-3.7-.2-1-.5-2.8-.9-3.9-.2-1-.4-2.7-.5-3.7-.1-.9-.3-2.4-.4-3.4-.1-.9-.2-2.4-.3-3.5-.1-1-.2-2.7-.2-3.8-.1-.9-.1-3.6-.1-6.2s0-5.1.1-6.2c.1-1,.2-2.6.2-3.7s.2-2.6.3-3.5c.1-.8.2-2.3.4-3.4.1-.9.3-2.6.5-3.7.2-1,.5-2.7.9-3.9.2-1.2.5-2.7.9-3.7.2-.9.6-2.3.9-2.9.3-.7.5-2.1,1-3,.3-1,.9-2.4,1.1-3.3.2-.8.6-2.1,1-2.7.2-.7.6-1.9,1.1-2.6.3-.8.9-2.1,1.2-2.8s1-2.1,1.3-2.8c.3-.8,1.2-2.5,2-4s1.7-3.4,2.1-4c.3-.7,1.3-2.2,1.8-3.3.6-1,1.6-2.5,2.2-3.5.5-.9,1.5-2.3,2.1-3.1.5-.8,1.6-2.2,2.3-3.1.7-.9,1.9-2.4,2.7-3.4.9-.9,1.9-2.3,2.5-2.9.6-.6,1.8-2,2.5-2.7.8-.8,2.5-2.5,3.7-3.8,1.3-1.3,3.1-2.8,3.8-3.7.9-.6,2.1-2.2,2.9-2.7.9-.5,2.2-1.8,3-2.4.9-.6,2.2-1.8,2.9-2.3l2.6-1.9c.6-.4,1.7-1.2,2.3-1.6.5-.4,1.8-1.3,2.6-1.7.9-.4,2.1-1.3,3-1.9s2.3-1.4,3.2-1.8c.9-.4,2.7-1.4,4.1-2.1,1.4-.6,3.3-1.6,4.3-2,1-.3,2.5-1,3.5-1.5,1.1-.4,2.3-.9,3.1-1.3.9-.2,2.1-.8,3.2-1.2,1-.3,2.7-.9,3.8-1.3,1.2-.3,2.9-.9,3.9-1.2s2.9-.8,4.1-1,3.1-.7,4.1-.9c1.1-.2,2.8-.4,3.7-.7,1.1-.2,2.7-.4,3.7-.5s2.7-.3,3.7-.4c1.1-.1,2.6-.2,3.6-.3,1.1-.1,2.7-.2,3.7-.2,1.1-.2,4,0,6.2,0s4.6.1,5.3.1,2.2.1,3.2.2c1,.1,2.3.2,3.3.3s2.5.2,3.5.4c1.1.2,2.7.3,3.6.5,1,.1,2.6.4,3.6.6,1.1.2,2.5.4,3.3.7.6.1,2.1.4,2.9.6,1,.2,2.3.5,3.2.8.9.2,2.3.6,3.3,1,1,.3,2.7.9,3.7,1.3,1.2.3,2.7,1,3.5,1.3.9.3,2.2.9,2.9,1.2.9.2,2.2.9,3.2,1.4,1,.4,2.6,1.2,3.5,1.6,1,.4,2.5,1.3,3.4,1.7,1,.4,2.3,1.3,3.1,1.7.6.4,1.9,1.2,2.6,1.5l2.7,1.7c.9.5,2.1,1.4,2.8,1.9.6.4,2.1,1.5,2.9,2.1,1,.6,2.3,1.7,3.2,2.4.9.7,2.2,1.7,3.1,2.5.9.7,2.2,1.9,2.9,2.5.9.6,2.5,2.3,3.7,3.7,1.3,1.3,2.9,2.9,3.6,3.8.6.9,1.9,2.1,2.6,2.8.6.8,1.8,2.3,2.5,3.1.6.8,1.7,2.2,2.5,3.1.7.9,1.9,2.4,2.6,3.5.7,1,1.7,2.5,2.3,3.5.5.9,1.4,2.3,2,3,.4.8,1.3,2.3,1.9,3.1.4.8,1.4,2.4,1.8,3.5.4,1,1.3,2.5,1.7,3.5.4,1,1.1,2.2,1.4,2.8l1.2,2.6c.3.8,1,2.2,1.3,3.3.3.9,1.1,2.7,1.4,4,.3,1.3,1.1,3.3,1.4,4.5s.9,2.9,1.1,3.9c.2.9.5,2.5.9,3.5.2.9.6,2.7.9,3.8.2,1.2.4,2.9.6,4.1.1,1.2.3,2.7.4,3.6.1.8.2,2.2.3,2.9.1.8.1,2.1.2,2.7s.1,2.3.2,3.5.1,3,.1,4.2,0,3.3-.1,4.3h.3Z"/>
        <path class="cls-1" d="M264.6,127.39c-.1-1.3-.1-3.1-.2-3.8-.1-.7-.1-2.1-.2-3-.1-.8-.2-2.4-.4-3.2-.1-1-.4-2.6-.5-3.9-.2-1.3-.5-3.2-.7-4.5-.4-1.2-.7-3.2-1-4.2-.4-1.1-.7-2.9-.9-3.8-.2-1.1-.8-3-1.2-4.3-.4-1.3-1.2-3.5-1.6-4.9s-1.2-3.5-1.5-4.4c-.4-1.2-1.1-2.7-1.4-3.6l-1.3-2.9c-.4-.7-1.1-2-1.6-3.1s-1.4-2.7-1.9-3.8c-.5-1.2-1.6-3-2-3.8-.6-.8-1.6-2.5-2-3.3-.6-.8-1.6-2.4-2.1-3.3-.6-1.1-1.8-2.7-2.5-3.8-.8-1.2-2.1-2.9-2.9-3.8-.8-1-2-2.5-2.7-3.3s-2-2.5-2.7-3.3c-.8-.8-2.1-2.1-2.9-3.1-.7-1-2.5-2.7-3.9-4.2-1.3-1.6-3.1-3.3-4.1-4.1-.8-.7-2.3-2-3.2-2.7-1-.8-2.4-2-3.3-2.7s-2.4-1.9-3.5-2.6c-.9-.6-2.5-1.8-3.2-2.3-.8-.5-2.1-1.4-3.1-2l-3-1.9c-.8-.4-2.1-1.2-2.9-1.7s-2.3-1.4-3.3-1.9-2.6-1.4-3.7-1.9c-1-.5-2.7-1.3-3.8-1.8-1.1-.6-2.5-1.3-3.5-1.5-.8-.4-2.3-1-3.2-1.3-.8-.4-2.5-1.1-3.8-1.4-1.1-.5-3-1.1-4.1-1.4-1.1-.4-2.6-.8-3.6-1.1-.9-.2-2.4-.6-3.5-.8-.9-.2-2.5-.6-3.2-.7-.8-.2-2.4-.5-3.6-.7-1.1-.2-2.9-.6-3.9-.7-.9-.2-2.7-.4-3.9-.6-1.1-.2-2.7-.4-3.8-.5-1.1-.1-2.5-.2-3.6-.4-1.1-.1-2.6-.2-3.5-.2s-3.6-.1-5.8-.1-5.6-.2-6.8,0c-1.1,0-2.9.1-4,.2-1.1.1-2.7.2-3.9.4-1.1.1-3,.4-4.1.5s-2.9.4-4.1.6c-1,.2-2.9.5-4.1.7-1.2.2-3.2.7-4.5.9s-3.4.7-4.5,1.1c-1.1.4-3,1-4.3,1.3-1.2.5-3.1,1.1-4.2,1.4-1.2.5-2.5,1.1-3.5,1.3-.9.5-2.3,1-3.4,1.4-1.1.6-2.7,1.3-3.8,1.7s-3.1,1.4-4.6,2.1c-1.6.7-3.6,1.8-4.5,2.3s-2.4,1.4-3.5,2-2.4,1.6-3.3,2c-.8.5-2.3,1.4-2.9,1.9s-1.8,1.3-2.5,1.8l-2.9,2c-.8.6-2.3,1.9-3.2,2.5s-2.4,2-3.3,2.6c-1,.6-2.3,2.3-3.2,3-.8,1-2.7,2.6-4.2,4.1-1.3,1.4-3.2,3.3-4.1,4.2-.8.8-2.1,2.3-2.7,3-.7.7-1.8,2.3-2.7,3.2-1,1.1-2.3,2.7-3,3.7s-1.9,2.5-2.5,3.3-1.7,2.4-2.3,3.3c-.6,1.1-1.8,2.7-2.4,3.8-.6,1.2-1.7,2.9-2,3.6-.4.7-1.4,2.7-2.3,4.4-.8,1.7-1.8,3.6-2.1,4.4-.4.8-1.1,2.3-1.4,3.1-.4.8-1,2.3-1.3,3.1-.5.8-1,2.1-1.2,2.9-.4.7-.8,2.1-1.1,3-.2.9-.8,2.5-1.2,3.6-.5,1.1-.7,2.6-1.1,3.3-.4.7-.7,2.3-.9,3.2-.4,1.1-.7,2.7-1,4.1-.4,1.3-.7,3.2-1,4.3-.2,1.2-.5,3.1-.6,4.1-.2,1.2-.4,2.9-.5,3.7-.1,1-.4,2.7-.4,3.8s-.1,3-.2,4.1c-.1,1.2-.1,3.9-.1,6.8s0,5.8.1,6.8c0,1.2.1,3.1.2,4.2.1,1.2.2,2.9.4,3.8.1,1.1.4,2.7.5,3.7.1,1.1.4,3,.6,4.1.4,1.2.7,3.2,1,4.3.4,1.3.7,3.1,1,4.1.4,1,.6,2.5.9,3.2.4.7.7,2.4,1.1,3.3.4,1.1,1,2.9,1.3,3.8.4,1.1,1.1,2.7,1.4,3.9.4,1.2,1.1,2.9,1.4,3.7.4.8,1.1,2.4,1.4,3.2.4.8,1.4,2.9,2.1,4.5.8,1.7,2.1,3.7,2.7,5,.6,1.3,1.7,3.1,2.3,4.1.6,1.1,1.7,2.7,2.3,3.7.6,1.1,1.8,2.7,2.4,3.6.6.8,1.8,2.4,2.4,3.2.7.8,2,2.5,2.7,3.3,1,.8,2.3,2.5,3,3.3l2.4,2.7c.6.6,1.8,2,2.9,3,1,1.1,2.6,2.7,3.7,3.6,1.1.8,2.6,2.3,3.3,3,.8.7,2.1,1.8,2.9,2.4.8.6,1.9,1.6,2.7,2.1.8.6,2.1,1.7,3.1,2.4,1,.7,2.5,1.9,3.5,2.5s2.7,1.8,3.7,2.4,2.7,1.8,3.9,2.4,2.7,1.5,3.3,1.9l3.3,1.8c1,.5,3,1.5,4.1,2s2.9,1.3,3.9,1.8c1.1.6,2.6,1.2,3.3,1.4.8.2,2.1.7,3.1,1.1l3.6,1.3c1.2.2,2.6.7,3.3.9l3.1.8c.8.2,2.6.7,3.9,1,1.2.4,3.1.7,4.2.9l3.8.7c1,.2,2.6.4,3.7.6s2.5.4,3.5.5c.9.1,2.4.2,3.4.4,1,.1,2.6.2,3.8.4,1.2.1,3.2.2,5,.2h6.2c1.7,0,3.8-.1,4.8-.1s2.4-.1,3-.1,2.3-.1,3.3-.2,2.6-.2,3.7-.4c1.1-.1,3.1-.4,4.5-.6,1.6-.2,3.7-.6,4.8-.8,1-.2,2.7-.6,3.8-.8,1.1-.2,2.5-.6,3.4-.8l2.9-.7,3-.8c1-.5,2.7-1.1,4.1-1.4,1.2-.4,3.2-1.2,4.5-1.7,1.2-.6,3-1.3,4.1-1.7,1-.4,2.7-1.3,3.9-1.8,1.1-.5,3.1-1.5,4.3-2.1,1.1-.7,2.9-1.7,3.8-2.1,1-.5,2.3-1.4,3.2-1.9,1-.6,2.3-1.4,3.2-2,1-.5,2.1-1.4,3.1-2,.9-.5,2.3-1.6,3.3-2.3,1.1-.7,2.6-1.9,3.3-2.5.8-.6,2.1-1.7,2.7-2.1.7-.5,1.9-1.4,2.7-2.3.8-.8,1.8-1.5,2.1-1.9.4-.4,1.4-1.4,2.5-2.4s2.5-2.6,3.6-3.6,2.3-2.3,3-3,1.7-1.8,2.3-2.5c.6-.7,1.8-2,2.5-3,.8-1.1,2-2.6,2.7-3.6.7-.9,1.8-2.5,2.4-3.3l2-2.9c.4-.6,1.3-1.9,1.8-2.7.5-.8,1.6-2.6,2.1-3.7.7-1.2,1.8-3,2.4-4.3s1.8-3.1,2.3-4.4,1.3-3.2,1.8-4.1c.5-1,1.2-2.6,1.6-3.6.4-1.1,1.2-3,1.6-4.1.4-1.2,1.1-3.1,1.4-4.1.4-1.1.8-2.7,1.1-3.6.2-1,.8-2.7,1.2-4.2.5-1.4,1-3.3,1.2-4.6.2-1.2.6-3.1.7-4.1.1-1.1.5-2.7.6-4.1.1-1.3.4-3.1.5-3.9.1-.9.2-2.4.4-3.2.1-.8.1-2.1.2-3,.1-1,.1-2.5.2-3.8.1-1.1.1-3.2.1-4.6s0-3.3-.1-4.6l.2-.4ZM253.5,136.29c-.1,1.2-.1,2.6-.2,3.5-.1.8-.1,2-.2,2.7-.1.8-.2,2.1-.3,2.9-.1.8-.3,2.4-.4,3.6s-.4,2.7-.5,3.7c-.1.9-.4,2.6-.6,3.7-.2,1.2-.6,2.9-1.1,4.3-.3,1.3-.9,2.9-1.1,3.8-.2.8-.6,2.3-1,3.3-.3.9-1,2.6-1.3,3.7-.3,1-1.1,2.7-1.4,3.7-.3.9-1,2.4-1.4,3.3-.4.8-1.2,2.5-1.6,3.7s-1.5,2.8-2.1,4-1.5,2.8-2.2,3.9c-.5,1-1.5,2.6-2,3.4-.4.8-1.3,2-1.6,2.5l-1.9,2.6c-.5.8-1.5,2.2-2.2,3-.7.9-1.7,2.3-2.5,3.3-.7.9-1.8,2.1-2.3,2.7-.5.7-1.4,1.6-2.1,2.3-.7.6-1.7,1.9-2.7,2.7-1,.9-2.3,2.4-3.3,3.3s-2,1.9-2.3,2.2-1.2,1-2,1.7c-.8.8-1.9,1.6-2.5,2.1-.5.4-1.8,1.4-2.5,2-.6.5-2.1,1.6-3.1,2.3-1,.6-2.2,1.6-3,2.1-.9.5-2,1.4-2.8,1.9-.9.5-2.1,1.3-2.9,1.9-.9.4-2.1,1.3-2.9,1.7-.9.4-2.5,1.3-3.5,2-1.1.5-2.9,1.5-3.9,2-1.1.4-2.7,1.3-3.6,1.6-1,.3-2.6,1-3.7,1.5-1.2.4-3.1,1.2-4.1,1.5-1.2.3-2.8.9-3.7,1.3l-2.7.8-2.6.6c-.9.2-2.2.5-3.1.8-1,.2-2.6.6-3.5.8-1,.2-2.9.5-4.4.8-1.3.2-3.2.4-4.1.5-1,.1-2.5.2-3.4.3-1,.1-2.3.2-3.1.2s-1.8.1-2.7.1-2.8.1-4.4.1h-5.7c-1.6,0-3.5-.1-4.6-.2s-2.6-.2-3.5-.3c-1-.1-2.3-.2-3.1-.3-.9-.1-2.2-.2-3.2-.4-1-.2-2.5-.3-3.4-.5l-3.5-.6c-1-.2-2.7-.6-3.8-.9-1.2-.2-2.8-.7-3.6-.9l-2.8-.8c-.7-.2-2-.6-3.1-.9l-3.3-1.2c-.9-.3-2.1-.8-2.8-1-.6-.2-2.1-.8-3.1-1.3-1-.4-2.6-1.2-3.6-1.6s-2.8-1.4-3.7-1.9l-3-1.6c-.5-.3-2-1.2-3.1-1.7s-2.7-1.6-3.6-2.2c-.9-.5-2.5-1.6-3.4-2.2s-2.3-1.6-3.2-2.3c-.9-.6-2.1-1.6-2.8-2.2-.8-.6-1.7-1.4-2.5-2-.6-.5-1.8-1.5-2.6-2.2-.6-.6-2.1-2-3-2.7-1-.8-2.5-2.3-3.4-3.3-1-.9-2.1-2.2-2.6-2.7l-2.2-2.5c-.6-.8-1.8-2.3-2.7-3-.6-.8-1.8-2.3-2.5-3.1-.5-.8-1.6-2.2-2.2-2.9-.5-.8-1.6-2.3-2.2-3.3-.5-.9-1.5-2.4-2.1-3.4-.5-.9-1.5-2.5-2.1-3.7s-1.7-3-2.5-4.6c-.7-1.5-1.6-3.4-2-4.1-.3-.8-1-2.2-1.3-2.9-.3-.8-1-2.3-1.3-3.4s-1-2.6-1.3-3.6c-.3-.9-.9-2.5-1.2-3.5-.3-.9-.6-2.4-1-3.1-.3-.7-.5-2.1-.9-2.9-.2-.9-.6-2.5-.9-3.7-.2-1-.5-2.8-.9-3.9-.2-1-.4-2.7-.5-3.7-.1-.9-.3-2.4-.4-3.4-.1-.9-.2-2.4-.3-3.5-.1-1-.2-2.7-.2-3.8-.1-.9-.1-3.6-.1-6.2s0-5.1.1-6.2c.1-1,.2-2.6.2-3.7s.2-2.6.3-3.5c.1-.8.2-2.3.4-3.4.1-.9.3-2.6.5-3.7.2-1,.5-2.7.9-3.9.2-1.2.5-2.7.9-3.7.2-.9.6-2.3.9-2.9.3-.7.5-2.1,1-3,.3-1,.9-2.4,1.1-3.3.2-.8.6-2.1,1-2.7.2-.7.6-1.9,1.1-2.6.3-.8.9-2.1,1.2-2.8s1-2.1,1.3-2.8c.3-.8,1.2-2.5,2-4s1.7-3.4,2.1-4c.3-.7,1.3-2.2,1.8-3.3.6-1,1.6-2.5,2.2-3.5.5-.9,1.5-2.3,2.1-3.1.5-.8,1.6-2.2,2.3-3.1.7-.9,1.9-2.4,2.7-3.4.9-.9,1.9-2.3,2.5-2.9.6-.6,1.8-2,2.5-2.7.8-.8,2.5-2.5,3.7-3.8,1.3-1.3,3.1-2.8,3.8-3.7.9-.6,2.1-2.2,2.9-2.7.9-.5,2.2-1.8,3-2.4.9-.6,2.2-1.8,2.9-2.3l2.6-1.9c.6-.4,1.7-1.2,2.3-1.6.5-.4,1.8-1.3,2.6-1.7.9-.4,2.1-1.3,3-1.9s2.3-1.4,3.2-1.8c.9-.4,2.7-1.4,4.1-2.1,1.4-.6,3.3-1.6,4.3-2,1-.3,2.5-1,3.5-1.5,1.1-.4,2.3-.9,3.1-1.3.9-.2,2.1-.8,3.2-1.2,1-.3,2.7-.9,3.8-1.3,1.2-.3,2.9-.9,3.9-1.2s2.9-.8,4.1-1,3.1-.7,4.1-.9c1.1-.2,2.8-.4,3.7-.7,1.1-.2,2.7-.4,3.7-.5s2.7-.3,3.7-.4c1.1-.1,2.6-.2,3.6-.3,1.1-.1,2.7-.2,3.7-.2,1.1-.2,4,0,6.2,0s4.6.1,5.3.1,2.2.1,3.2.2c1,.1,2.3.2,3.3.3s2.5.2,3.5.4c1.1.2,2.7.3,3.6.5,1,.1,2.6.4,3.6.6,1.1.2,2.5.4,3.3.7.6.1,2.1.4,2.9.6,1,.2,2.3.5,3.2.8.9.2,2.3.6,3.3,1,1,.3,2.7.9,3.7,1.3,1.2.3,2.7,1,3.5,1.3.9.3,2.2.9,2.9,1.2.9.2,2.2.9,3.2,1.4,1,.4,2.6,1.2,3.5,1.6,1,.4,2.5,1.3,3.4,1.7,1,.4,2.3,1.3,3.1,1.7.6.4,1.9,1.2,2.6,1.5l2.7,1.7c.9.5,2.1,1.4,2.8,1.9.6.4,2.1,1.5,2.9,2.1,1,.6,2.3,1.7,3.2,2.4.9.7,2.2,1.7,3.1,2.5.9.7,2.2,1.9,2.9,2.5.9.6,2.5,2.3,3.7,3.7,1.3,1.3,2.9,2.9,3.6,3.8.6.9,1.9,2.1,2.6,2.8.6.8,1.8,2.3,2.5,3.1.6.8,1.7,2.2,2.5,3.1.7.9,1.9,2.4,2.6,3.5.7,1,1.7,2.5,2.3,3.5.5.9,1.4,2.3,2,3,.4.8,1.3,2.3,1.9,3.1.4.8,1.4,2.4,1.8,3.5.4,1,1.3,2.5,1.7,3.5.4,1,1.1,2.2,1.4,2.8l1.2,2.6c.3.8,1,2.2,1.3,3.3.3.9,1.1,2.7,1.4,4,.3,1.3,1.1,3.3,1.4,4.5s.9,2.9,1.1,3.9c.2.9.5,2.5.9,3.5.2.9.6,2.7.9,3.8.2,1.2.4,2.9.6,4.1.1,1.2.3,2.7.4,3.6.1.8.2,2.2.3,2.9.1.8.1,2.1.2,2.7s.1,2.3.2,3.5.1,3,.1,4.2,0,3.3-.1,4.3h.3Z"/>
      </g>
      <path class="cls-2" d="M216.8,81.49c-.1-.7-.2-1.9-.4-2.5-.1-.6-.4-1.8-.5-2.6s-.5-2-.7-2.6-.6-1.7-.7-2.3c-.2-.6-.7-1.8-1.2-2.5s-1.1-2-1.4-2.7c-.4-.7-1.1-1.8-1.4-2.4-.4-.6-1.1-1.7-1.5-2.1-.4-.6-1.2-1.6-1.6-2-.4-.5-1.3-1.5-1.8-2.1s-1.5-1.8-2.3-2.4c-.6-.6-1.9-1.9-2.7-2.5-.8-.6-2.1-1.9-3.1-2.5-.9-.6-2.1-1.7-2.9-2.1-.6-.5-1.9-1.3-2.7-1.8-.7-.5-2-1.3-2.9-1.7-.8-.4-1.9-1.1-2.5-1.5-.6-.5-2.3-1.1-3.5-1.8s-3-1.4-3.8-1.8c-.9-.4-2.5-1-3.7-1.4s-2.7-.9-3.5-1.3c-.7-.2-2.1-.6-3-.8-.7-.2-2.3-.6-3.3-.8-1.1-.2-2.5-.6-3.5-.7-.9-.1-2.4-.5-3.6-.7s-3-.5-3.8-.6c-1-.1-2.5-.2-3.6-.4s-2.7-.2-3.6-.2c-1.1-.6-2.9-.6-3.9-.7h-3.3c-.6,0-1.9,0-2.9.1-1.1.1-2.5.1-3.3.2l-3.1.4c-.9.1-2.3.2-3.2.5-1,.1-2.4.4-3.2.5-.7.1-2.1.5-2.9.6-.7.1-2.5.5-4.1.8l-4.5.8c-1,.2-2.5.5-3.5.7-1.1.2-2.7.6-3.7,1-1.1.4-2.9.7-3.8,1.1-.9.4-2.7.8-3.7,1.1-1.1.2-2.7.8-3.7,1.3-1.1.4-2.5,1-3.5,1.4s-2.4,1-3.5,1.6c-1.1.5-2.3,1.1-3.1,1.7-.7.5-1.9,1.1-2.5,1.7-.6.5-1.8,1.3-2.3,1.7s-1.6,1.3-2,1.9c-.6.6-1.3,1.4-1.8,2s-1,1.3-1.3,2c-.2.6-.5,1.1-.7,1.8-.1.5-.2.9-.4,1.5-.1.4-.1,1.1-.2,1.6v1.8c.1.6.2,1.3.4,1.9.1.5.4,1.3.5,1.8s.5,1.1.7,1.7c.2.5.6,1,.7,1.4.4.5.7.8,1.2,1.3.5.4,1.1.8,1.6,1.1.5.2,1.1.5,1.6.7.6.2,1.2.4,1.8.6.6.1,1.5.2,2,.4h2.5c.7,0,1.5-.1,2.3-.2.4-.1,1.2-.2,1.7-.4.5-.1,1.3-.4,1.8-.6.6-.2,1.2-.5,1.7-.7s1.1-.6,1.6-.8c.4-.2,1.2-.8,1.8-1.6.6-.6,1.9-1.8,3-2.6s3-2.4,4.1-3.6c1.2-1.1,3.1-2.5,4.1-3.2,1.1-.7,2.5-1.9,3.5-2.6.9-.7,2.1-1.6,2.7-1.9.5-.4,1.6-1.1,2.3-1.7.7-.5,1.9-1.3,2.5-1.7s1.6-.8,2.3-1.3c.6-.4,1.7-.8,2.1-1.1.5-.2,1.7-.6,2.3-.8.7-.2,1.5-.5,2.3-.6.6-.1,1.7-.4,2.1-.4s1.7-.2,2.3-.2c.6-.1,1.8-.2,2.5-.2s2.9-.1,5.6-.1,4.9,0,6.4.1c1.3.1,3.1.2,4.1.4,1.1.1,2.7.2,3.8.5,1.2.1,2.5.4,3.3.5.6.1,2.1.4,3.2.6,1.1.2,2.9.6,3.8.8,1.1.2,2.7.7,3.8,1.1,1.2.4,2.5.8,3.3,1.1.7.2,2,.7,2.7,1,.7.2,2.3.9,3.5,1.7,1.2.7,2.9,1.4,3.7,1.9,1,.5,2,1.3,2.9,1.7.7.4,1.8,1.1,2.5,1.7.6.5,1.8,1.3,2.3,1.8.6.5,1.7,1.4,2.4,2l2.1,2.1c.5.5,1.3,1.4,1.8,1.9s1.1,1.3,1.3,1.7c.2.4,1,1.3,1.4,2s1.1,1.7,1.4,2.3.7,1.4,1.1,2c.2.5.6,1.4.7,2,.2.5.5,1.4.6,2,.1.5.4,1.4.5,1.9s.2,1.4.4,2c.1,1.1.1,2.3.1,3.3s0,2.7-.1,3.3-.1,1.7-.2,2.3-.2,1.8-.4,2.5c-.1.7-.4,2.1-.7,3.1-.2,1-.6,2.5-.9,3.2-.2.7-.7,2.3-1.2,3.1-.4.8-1.1,2.4-1.5,3.3-.5,1-1.3,2.4-1.7,3.1s-1.2,2-1.8,2.7c-.5.7-1.3,1.9-1.8,2.5s-1.2,1.5-1.7,2.1-1.4,1.7-2,2.3c-.6.7-1.9,1.9-2.7,2.6-1,.7-2,1.8-2.5,2.3s-1.7,1.4-2.4,1.9c-.7.5-2.1,1.5-3.2,2.1s-2.4,1.6-3.2,2c-.7.5-2.3,1.3-3.5,1.9s-2.9,1.4-3.7,1.8c-.9.4-2.5,1-3.6,1.6-1.1.4-2.9,1.1-3.9,1.5-1.2.4-2.5.8-3.3,1-.7.2-2.1.6-3.2.8-1.1.2-2.7.6-3.8.8-1.2.2-3,.6-3.8.7s-2.7.5-3.6.6c-1.1.1-2.5.4-3.4.5-1,.1-2.7.2-4.1.4-1.4.1-2.7.2-2.9.2h-.2v-2.4c0-1.3,0-3,.1-3.8v-1.4l1.8-.2c1.1-.1,2.7-.4,3.8-.5,1.2-.1,2.7-.5,3.6-.7,1-.2,2.4-.6,3.3-.8.9-.2,2.1-.6,2.9-.8.6-.2,1.9-.6,2.9-1,.9-.4,2.4-.8,3.3-1.3,1-.4,2.5-1.1,3.6-1.7,1.1-.5,2.4-1.3,3.2-1.7.7-.4,1.9-1.1,2.7-1.5.7-.4,2.3-1.4,3.2-2,1.1-.6,2.4-1.7,3.2-2.1.7-.5,2.1-1.7,3.2-2.5s2.5-2,3.2-2.6,2.1-1.9,3.2-2.9,2.9-2.6,3.8-3.8c1.1-1.1,2.4-2.5,3.1-3.2.6-.7,1.7-1.9,2.3-2.7.6-.7,1.8-2.3,2.5-3.1.7-.8,1.8-2.3,2.3-3s1.5-2.1,2-3c.6-.8,1.6-2.3,2-3.1.5-.8,1.3-2,1.7-2.7.4-.6.6-1.1.6-1.3H53l.4.7c.2.4.7,1.4,1.3,2.1.5.7,1.3,2,1.8,2.7s1.4,2.1,2,3c.6.8,1.7,2.3,2.3,3.1.6.8,1.8,2.3,2.5,3.2.7,1,1.9,2.3,2.5,3s1.9,2.1,2.9,3c1,.8,2.4,2.5,3.6,3.7,1.2,1.2,2.4,2.4,3.1,2.7.6.4,1.7,1.4,2.3,2s1.8,1.6,2.4,2,1.9,1.6,2.7,2c.7.5,2.4,1.7,3.3,2.4,1,.7,2.3,1.6,2.9,1.8.5.2,1.8,1.1,2.9,1.7,1.1.5,2.5,1.4,3.5,1.8.9.5,2.4,1.1,3.2,1.6,1,.4,2.3,1,3.1,1.3,1,.2,2.4.8,3.6,1.3,1.2.4,2.9.8,3.8,1.1,1.1.2,2.4.6,3.3.7s2.3.5,3.2.6c1,.1,2.5.4,3.6.5l2.1.2h.2v8.7h-1.5c0,.1-3,.5-3,.5-1.2.1-2.5.4-3.2.5l-3.1.5c-1.1.2-2.9.5-3.7.7-1,.2-2.3.5-3.2.7-.7.2-2,.5-2.7.7-.6.2-1.9.6-2.5.7s-2.1.7-3.2,1.1c-1.1.4-2.7,1.1-3.6,1.7-1,.4-1.8.8-2.5,1.4-.5.4-1.3.8-1.8,1.3-.5.4-1.3,1.1-1.7,1.6-.4.4-1.2,1.1-1.4,1.6-.4.5-.7.8-1.1,1.4-.2.4-.5.8-.6,1.4-.2.5-.4,1-.5,1.7s-.2,1.4-.2,2.1,0,1.3.1,1.9c0,.4.2.8.4,1.3.1.5.4,1,.6,1.6.2.6.5,1,.9,1.6.2.4,1,1.1,1.2,1.5.5.6,1.1,1.1,1.7,1.7s1.3,1.1,1.9,1.6c.5.4,1.3.8,1.7,1.3.4.4,1.3.7,1.9,1.1.6.4,1.9.9,2.7,1.4.7.4,2.4,1.1,3.5,1.6l3.3,1.4c.7.4,2.9,1.3,4.5,2.1,1.7.8,3.8,2,4.9,2.5s2.7,1.6,3.8,2.1l3.8,2.4,2.3,1.4.4.2v9.9c0,7.6,0,9.8-.1,9.8l-1.3.2c-.6.1-1.9.5-2.9.7s-2.3.7-3,1.1-1.9.8-2.5,1.3c-.6.4-1.7,1-2.3,1.4-.6.4-1.7,1.1-2.3,1.7-.6.5-1.7,1.3-2.3,1.8s-1.7,1.6-2.3,2.1c-.7.6-1.7,1.7-2.1,2.1-.5.5-1.3,1.4-1.7,2s-1.3,1.7-1.7,2.3c-.4.6-1.2,1.7-1.6,2.1-.4.5-.9,1.3-1.1,1.7l-.4.6h66c0-.1-.2-.5-.5-.8-.2-.5-1-1.4-1.3-2-.4-.6-1.2-1.7-1.5-2.3-.4-.6-1.3-1.8-2-2.5s-1.9-2.1-3-3c-.9-.8-2.3-2.1-3-2.6s-1.8-1.4-2.4-1.9-1.7-1.1-2.3-1.6c-.6-.4-1.9-1.1-2.9-1.6-.9-.5-2.1-.9-2.9-1.3-.6-.2-1.8-.6-2.5-.8-.7-.2-1.7-.5-2.3-.6l-1.1-.2v-6.1c0-3.2,0-6.1.1-6.1s1.2.7,2.5,1.8l4.8,3.3c1.3.8,3.3,2.5,4.8,3.6,1.4,1,3.7,2.7,5.2,3.9,1.6,1.1,4.1,3,5.6,4.1l4.6,3.1c1.1.6,2.3,1.6,2.9,1.9.5.4,1.3.7,1.6.8.2.1.5.1.6.2.1,0,.2,0,.2-.2-.1-.4-.2-.6-.5-.8-.4-.5-.7-1-1.2-1.6s-1.3-1.6-2.1-2.4c-.8-.8-2.5-2.6-3.9-3.9s-3.6-3.3-5.1-4.6c-1.6-1.3-3.6-3-4.8-4.1l-4.3-3.7c-1.2-1-3.2-2.5-4.3-3.3-1.2-.8-3-2.4-3.9-3.1l-2.1-1.7h-.2v-39.9h1.1l3.8-.2c1.6-.1,3.6-.2,4.6-.4,1.1-.1,2.7-.2,3.6-.4,1.1-.1,2.7-.4,3.7-.5,1.1-.1,2.9-.5,3.7-.6l3.3-.7c.9-.2,2.4-.6,3.5-.8,1.1-.2,2.5-.7,3.4-.9,1-.2,2.4-.7,3.2-1,.7-.2,2.1-.7,3.1-1.1s2-.7,2.9-1.1c.6-.2,2-.8,2.9-1.3,1-.4,2.3-1,3.1-1.6.7-.4,2.1-1.1,3-1.5.7-.4,1.9-1.1,2.5-1.4.6-.4,1.9-1.3,3-1.9,1.1-.5,2.5-1.8,3.5-2.4.9-.6,2.5-1.9,3.4-2.6,1-.7,2.3-2,3.1-2.6.7-.6,1.8-1.8,2.3-2.3s1.4-1.4,1.8-1.9c.4-.4,1.2-1.3,1.7-2s1.3-1.7,1.7-2.1c.4-.5,1.1-1.4,1.4-1.9.4-.5,1.1-1.6,1.5-2.3.4-.6,1.1-1.7,1.3-2.1.2-.5.9-1.6,1.2-2.1.4-.6.9-1.8,1.2-2.4.2-.6.9-1.9,1.2-2.6.4-.8,1.1-2.5,1.4-3.8.4-1.3,1.1-3.1,1.3-4.2.2-.9.6-2.5.7-3.3s.4-2.3.5-2.9.2-1.9.4-2.6.1-2.5.2-4.6c0-1.5,0-3.1-.1-4.6l-.1-.7ZM121.7,167.69c0,8.2,0,15-.1,15.5v.6l-3-1.9c-1.7-1.1-3.8-2.4-4.9-3s-2.7-1.5-3.6-2.1c-1-.5-2.9-1.6-4.1-2.1s-3.1-1.6-3.8-1.9c-.7-.4-2-1-2.9-1.3-.6-.2-1.8-1-2.3-1.3-.5-.2-1.5-.9-2-1.3-.5-.2-1.3-.8-1.7-1.3-.4-.4-1.2-1-1.6-1.4-.4-.4-.7-.7-1.1-1.3-.2-.4-.4-.6-.5-.9-.1-.2-.1-.5-.1-.8s.1-.5.2-.7c.2-.4.6-.7,1.1-1.1.5-.5,1.2-.8,1.7-1.4.5-.2,1.4-.8,2.1-1.1.6-.4,1.8-.8,2.3-1,.5-.1,1.9-.6,2.9-.9,1-.4,2.5-.7,3.7-1,1.2-.2,2.9-.6,3.8-.8,1.1-.2,2.9-.5,3.9-.7l3.6-.5c.7-.1,2.4-.2,3.6-.4l2.4-.5h.2v14.8l.2-.2Z"/>
    </g>
  </g>
</svg>